<svg xmlns="http://www.w3.org/2000/svg" id="canvas" viewBox="259.411 346.337 1027.093 146.516"><path d="M 300.04,349.67 C 298.80 350.27, 298.12 351.18, 297.10 353.39 C 296.09 355.60, 295.99 357.17, 294.95 360.72 C 293.92 364.27, 293.42 366.56, 291.93 371.14 C 290.44 375.72, 289.52 378.33, 287.48 383.62 C 285.45 388.92, 284.05 391.96, 281.75 397.63 C 279.46 403.30, 278.16 406.39, 276.01 411.96 C 273.87 417.53, 272.77 420.48, 271.03 425.48 C 269.29 430.49, 268.65 432.81, 267.32 436.98 C 265.98 441.14, 265.32 443.00, 264.35 446.32 C 263.38 449.64, 262.72 451.15, 262.48 453.59 C 262.23 456.03, 262.71 457.11, 263.12 458.53 C 263.53 459.95, 263.89 460.24, 264.53 460.68 C 265.17 461.11, 265.68 461.07, 266.33 460.71 C 266.99 460.36, 267.20 460.11, 267.82 458.91 C 268.44 457.72, 268.94 456.96, 269.45 454.72 C 269.96 452.47, 269.83 450.98, 270.38 447.70 C 270.92 444.42, 271.20 442.49, 272.18 438.33 C 273.15 434.16, 273.70 431.85, 275.25 426.88 C 276.81 421.90, 277.86 418.99, 279.95 413.46 C 282.04 407.94, 283.33 404.88, 285.71 399.27 C 288.08 393.66, 289.54 390.64, 291.85 385.43 C 294.16 380.21, 295.28 377.66, 297.27 373.19 C 299.25 368.72, 300.35 366.62, 301.76 363.07 C 303.17 359.51, 304.01 357.95, 304.32 355.41 C 304.64 352.88, 304.19 351.55, 303.33 350.40 C 302.47 349.26, 301.29 349.07, 300.04 349.67" style="stroke: black; fill: black;"/><path d="M 334.75,355.06 C 333.70 355.09, 333.13 355.34, 332.31 356.19 C 331.49 357.04, 331.20 357.74, 330.66 359.32 C 330.11 360.90, 330.01 361.60, 329.59 364.09 C 329.18 366.58, 329.29 368.19, 328.60 371.77 C 327.90 375.35, 327.42 377.65, 326.12 381.97 C 324.82 386.29, 323.93 388.63, 322.11 393.35 C 320.29 398.07, 319.10 400.77, 317.04 405.55 C 314.98 410.33, 313.76 412.78, 311.81 417.27 C 309.86 421.75, 308.99 424.11, 307.30 427.98 C 305.61 431.85, 304.63 433.49, 303.35 436.61 C 302.06 439.72, 301.35 441.26, 300.88 443.54 C 300.40 445.82, 300.79 446.68, 300.96 447.99 C 301.14 449.30, 301.27 449.55, 301.76 450.07 C 302.25 450.59, 302.70 450.76, 303.41 450.59 C 304.11 450.42, 304.44 450.24, 305.28 449.24 C 306.12 448.24, 306.78 447.67, 307.62 445.58 C 308.47 443.50, 308.56 441.94, 309.51 438.82 C 310.46 435.70, 310.99 433.91, 312.37 429.98 C 313.75 426.06, 314.58 423.70, 316.41 419.20 C 318.24 414.71, 319.42 412.28, 321.52 407.50 C 323.62 402.73, 324.87 400.03, 326.92 395.33 C 328.97 390.62, 329.99 388.26, 331.77 383.99 C 333.54 379.72, 334.34 377.50, 335.81 373.97 C 337.28 370.44, 338.31 368.98, 339.11 366.34 C 339.91 363.71, 339.83 362.55, 339.82 360.79 C 339.81 359.04, 339.53 358.52, 339.07 357.56 C 338.62 356.61, 338.41 356.53, 337.55 356.03 C 336.69 355.53, 335.80 355.03, 334.75 355.06" style="stroke: black; fill: black;"/><path d="M 269.44,421.78 C 269.74 422.85, 270.16 423.40, 271.54 424.18 C 272.93 424.95, 273.95 425.53, 276.37 425.66 C 278.79 425.79, 280.43 425.34, 283.66 424.84 C 286.89 424.34, 288.67 423.76, 292.52 423.15 C 296.37 422.54, 298.68 422.33, 302.91 421.79 C 307.14 421.25, 309.46 420.90, 313.68 420.45 C 317.89 420.01, 320.05 419.88, 323.99 419.56 C 327.93 419.23, 330.03 419.00, 333.37 418.82 C 336.71 418.63, 338.32 418.95, 340.70 418.62 C 343.08 418.28, 344.00 417.78, 345.28 417.14 C 346.56 416.51, 346.64 415.99, 347.09 415.43 C 347.53 414.87, 347.48 414.77, 347.51 414.34 C 347.55 413.91, 347.47 413.65, 347.27 413.27 C 347.07 412.90, 347.07 412.82, 346.50 412.46 C 345.93 412.10, 345.72 411.73, 344.43 411.47 C 343.14 411.22, 342.39 411.11, 340.05 411.20 C 337.70 411.28, 336.04 411.43, 332.70 411.89 C 329.36 412.35, 327.25 412.95, 323.33 413.49 C 319.40 414.02, 317.27 414.14, 313.07 414.56 C 308.86 414.99, 306.53 415.31, 302.30 415.61 C 298.07 415.92, 295.76 416.04, 291.91 416.10 C 288.06 416.15, 286.22 415.97, 283.06 415.90 C 279.90 415.82, 278.31 415.45, 276.10 415.71 C 273.88 415.97, 273.18 416.58, 271.97 417.20 C 270.76 417.82, 270.54 417.88, 270.03 418.80 C 269.52 419.71, 269.14 420.70, 269.44 421.78" style="stroke: black; fill: black;"/><path d="M 362.73,437.50 C 363.38 438.51, 364.05 438.79, 365.73 439.28 C 367.42 439.77, 368.53 440.17, 371.15 439.95 C 373.76 439.73, 375.62 439.22, 378.80 438.19 C 381.98 437.17, 383.86 436.19, 387.05 434.82 C 390.23 433.46, 391.82 432.83, 394.73 431.37 C 397.63 429.92, 399.14 429.28, 401.56 427.53 C 403.98 425.78, 405.23 424.65, 406.81 422.63 C 408.40 420.62, 408.92 419.51, 409.48 417.44 C 410.05 415.36, 410.13 414.28, 409.65 412.25 C 409.17 410.22, 408.76 408.94, 407.08 407.27 C 405.39 405.60, 404.05 404.57, 401.23 403.89 C 398.42 403.22, 396.55 403.35, 393.00 403.92 C 389.45 404.48, 387.48 405.11, 383.49 406.72 C 379.51 408.34, 377.24 409.43, 373.07 412.00 C 368.90 414.58, 366.53 416.42, 362.63 419.61 C 358.72 422.80, 356.78 424.65, 353.54 427.96 C 350.31 431.26, 348.74 432.92, 346.45 436.15 C 344.16 439.37, 342.96 440.95, 342.11 444.08 C 341.27 447.20, 341.46 448.93, 342.22 451.77 C 342.98 454.61, 343.82 456.12, 345.90 458.26 C 347.98 460.41, 349.41 461.43, 352.62 462.50 C 355.82 463.56, 357.82 463.53, 361.93 463.60 C 366.03 463.68, 368.41 463.50, 373.16 462.88 C 377.91 462.25, 380.59 461.70, 385.68 460.47 C 390.77 459.24, 393.59 458.44, 398.62 456.70 C 403.64 454.96, 406.50 453.67, 410.81 451.76 C 415.11 449.84, 417.31 449.06, 420.14 447.13 C 422.97 445.21, 424.30 443.59, 424.94 442.13 C 425.58 440.67, 424.85 439.79, 423.34 439.84 C 421.82 439.88, 420.33 440.94, 417.38 442.35 C 414.43 443.76, 412.66 444.96, 408.58 446.89 C 404.49 448.82, 401.77 450.29, 396.97 452.01 C 392.16 453.72, 389.42 454.45, 384.54 455.47 C 379.67 456.49, 377.03 456.85, 372.60 457.12 C 368.17 457.39, 365.88 457.26, 362.39 456.82 C 358.89 456.38, 357.46 455.68, 355.12 454.91 C 352.78 454.15, 352.02 453.96, 350.68 453.00 C 349.34 452.04, 348.81 451.51, 348.42 450.10 C 348.03 448.68, 348.12 448.04, 348.73 445.92 C 349.34 443.80, 349.74 442.35, 351.50 439.51 C 353.25 436.68, 354.62 434.88, 357.52 431.74 C 360.42 428.60, 362.33 426.76, 366.01 423.80 C 369.70 420.84, 372.04 419.11, 375.96 416.95 C 379.88 414.79, 382.05 413.96, 385.62 413.02 C 389.19 412.08, 391.02 412.30, 393.81 412.24 C 396.61 412.19, 397.82 412.56, 399.62 412.74 C 401.42 412.91, 401.95 412.92, 402.82 413.11 C 403.69 413.30, 403.83 413.31, 403.96 413.69 C 404.10 414.07, 404.04 414.27, 403.47 415.01 C 402.90 415.75, 402.45 416.23, 401.11 417.38 C 399.77 418.54, 398.76 419.41, 396.78 420.80 C 394.79 422.18, 393.70 423.03, 391.17 424.31 C 388.64 425.58, 387.09 426.19, 384.13 427.16 C 381.18 428.13, 379.30 428.56, 376.39 429.16 C 373.48 429.76, 371.87 429.59, 369.59 430.15 C 367.31 430.71, 366.41 431.16, 364.98 431.97 C 363.56 432.78, 362.92 433.08, 362.47 434.19 C 362.01 435.30, 362.07 436.48, 362.73 437.50" style="stroke: black; fill: black;"/><path d="M 459.13,372.06 C 457.91 372.44, 457.29 373.04, 456.13 374.90 C 454.98 376.75, 454.59 378.05, 453.37 381.33 C 452.15 384.62, 451.51 386.97, 450.03 391.33 C 448.56 395.69, 447.90 398.41, 446.01 403.14 C 444.12 407.87, 442.78 410.34, 440.56 414.99 C 438.35 419.64, 437.13 422.08, 434.92 426.41 C 432.71 430.73, 431.47 432.91, 429.54 436.60 C 427.60 440.30, 426.16 441.80, 425.26 444.86 C 424.36 447.92, 424.27 449.68, 425.04 451.90 C 425.81 454.12, 427.05 455.17, 429.10 455.97 C 431.15 456.78, 432.88 456.61, 435.28 455.93 C 437.67 455.25, 439.57 454.48, 441.06 452.57 C 442.55 450.66, 443.05 448.22, 442.75 446.38 C 442.44 444.54, 441.26 443.69, 439.53 443.38 C 437.80 443.08, 435.87 443.80, 434.10 444.84 C 432.32 445.87, 431.56 447.16, 430.65 448.56 C 429.74 449.95, 429.64 451.24, 429.54 451.82 C 429.43 452.40, 429.63 452.41, 430.12 451.46 C 430.62 450.51, 431.08 449.55, 432.00 447.06 C 432.91 444.57, 433.20 442.68, 434.69 438.99 C 436.18 435.30, 437.38 432.99, 439.44 428.62 C 441.49 424.24, 442.69 421.79, 444.97 417.12 C 447.25 412.44, 448.67 409.92, 450.85 405.23 C 453.03 400.54, 453.90 397.85, 455.86 393.66 C 457.82 389.47, 459.20 387.54, 460.63 384.28 C 462.06 381.02, 462.70 379.62, 463.02 377.37 C 463.34 375.12, 463.01 374.08, 462.23 373.02 C 461.46 371.96, 460.35 371.69, 459.13 372.06" style="stroke: black; fill: black;"/><path d="M 491.43,369.46 C 490.23 369.39, 489.56 369.68, 488.07 370.88 C 486.58 372.08, 485.54 372.90, 483.98 375.46 C 482.41 378.01, 482.00 380.11, 480.24 383.66 C 478.48 387.21, 477.34 389.34, 475.17 393.20 C 472.99 397.07, 471.67 399.10, 469.37 402.97 C 467.07 406.84, 465.81 408.86, 463.65 412.54 C 461.50 416.22, 460.29 418.05, 458.61 421.37 C 456.94 424.68, 456.04 426.19, 455.28 429.13 C 454.51 432.08, 454.47 433.79, 454.77 436.10 C 455.07 438.40, 455.80 439.80, 456.78 440.66 C 457.77 441.52, 458.86 441.25, 459.70 440.42 C 460.55 439.58, 460.44 438.36, 461.01 436.49 C 461.57 434.62, 461.85 433.57, 462.54 431.07 C 463.22 428.56, 463.18 427.12, 464.42 423.98 C 465.65 420.85, 466.74 419.00, 468.71 415.39 C 470.67 411.78, 471.89 409.71, 474.23 405.91 C 476.57 402.12, 477.93 400.11, 480.40 396.42 C 482.87 392.73, 484.26 390.69, 486.57 387.47 C 488.88 384.24, 490.44 382.83, 491.96 380.29 C 493.48 377.74, 493.75 376.58, 494.17 374.76 C 494.60 372.94, 494.63 372.26, 494.08 371.20 C 493.54 370.14, 492.64 369.52, 491.43 369.46" style="stroke: black; fill: black;"/><path d="M 540.12,405.71 C 540.58 404.55, 540.37 403.42, 539.38 402.11 C 538.40 400.81, 537.38 399.92, 535.18 399.21 C 532.98 398.50, 531.27 398.11, 528.40 398.55 C 525.53 398.98, 524.08 399.87, 520.82 401.40 C 517.55 402.92, 515.63 404.00, 512.08 406.18 C 508.53 408.36, 506.42 409.70, 503.09 412.28 C 499.76 414.86, 498.15 416.28, 495.43 419.09 C 492.72 421.90, 491.12 423.36, 489.51 426.31 C 487.89 429.25, 487.42 430.96, 487.37 433.83 C 487.32 436.71, 487.77 438.33, 489.24 440.70 C 490.71 443.06, 491.97 444.36, 494.70 445.66 C 497.43 446.96, 499.24 447.24, 502.88 447.18 C 506.52 447.12, 508.68 446.50, 512.89 445.36 C 517.11 444.21, 519.57 443.29, 523.96 441.44 C 528.35 439.60, 530.68 438.42, 534.83 436.14 C 538.99 433.85, 541.22 432.57, 544.75 430.02 C 548.28 427.46, 550.05 426.09, 552.47 423.37 C 554.89 420.64, 555.89 419.19, 556.85 416.38 C 557.81 413.58, 557.82 411.93, 557.28 409.35 C 556.73 406.77, 555.74 405.18, 554.12 403.49 C 552.49 401.79, 550.93 401.20, 549.15 400.85 C 547.37 400.51, 546.19 400.97, 545.21 401.77 C 544.23 402.56, 544.08 403.66, 544.27 404.82 C 544.46 405.97, 545.21 406.66, 546.16 407.54 C 547.11 408.42, 548.00 408.54, 549.02 409.20 C 550.03 409.86, 550.90 409.87, 551.22 410.82 C 551.54 411.78, 551.35 412.33, 550.60 413.98 C 549.84 415.63, 549.33 416.78, 547.46 419.07 C 545.58 421.35, 544.30 422.95, 541.24 425.38 C 538.18 427.82, 536.05 429.13, 532.16 431.25 C 528.27 433.37, 525.95 434.46, 521.81 435.99 C 517.66 437.52, 515.21 438.21, 511.42 438.88 C 507.64 439.55, 505.66 439.40, 502.88 439.35 C 500.10 439.29, 499.18 439.04, 497.52 438.59 C 495.85 438.14, 495.28 437.93, 494.55 437.08 C 493.83 436.23, 493.62 435.76, 493.90 434.34 C 494.18 432.92, 494.67 432.12, 495.96 429.97 C 497.24 427.83, 498.09 426.13, 500.31 423.63 C 502.53 421.14, 504.01 419.75, 507.05 417.50 C 510.09 415.25, 512.14 414.04, 515.52 412.37 C 518.90 410.70, 521.07 410.08, 523.93 409.15 C 526.79 408.22, 527.94 408.01, 529.82 407.71 C 531.70 407.42, 532.28 407.67, 533.33 407.66 C 534.38 407.66, 534.30 407.65, 535.06 407.70 C 535.82 407.75, 536.10 408.31, 537.12 407.92 C 538.13 407.52, 539.67 406.88, 540.12 405.71" style="stroke: black; fill: black;"/><path d="M 583.87,443.79 C 582.89 443.57, 582.37 443.27, 581.03 444.04 C 579.69 444.81, 578.38 445.53, 577.16 447.65 C 575.93 449.76, 575.89 451.59, 574.90 454.63 C 573.91 457.67, 573.51 459.59, 572.19 462.85 C 570.87 466.12, 569.90 467.96, 568.29 470.97 C 566.67 473.98, 565.46 475.38, 564.11 477.90 C 562.76 480.43, 562.09 481.66, 561.53 483.61 C 560.97 485.57, 561.17 486.50, 561.32 487.67 C 561.47 488.85, 561.80 489.06, 562.28 489.49 C 562.75 489.92, 563.09 489.87, 563.68 489.82 C 564.26 489.77, 564.34 489.80, 565.19 489.23 C 566.04 488.66, 566.70 488.44, 567.94 486.97 C 569.17 485.49, 569.97 484.37, 571.37 481.87 C 572.77 479.36, 573.35 477.56, 574.93 474.42 C 576.50 471.28, 577.50 469.39, 579.24 466.18 C 580.98 462.97, 582.09 461.19, 583.61 458.35 C 585.13 455.51, 586.13 454.17, 586.84 451.98 C 587.54 449.78, 587.31 448.72, 587.13 447.36 C 586.95 445.99, 586.57 445.88, 585.92 445.16 C 585.27 444.45, 584.85 444.02, 583.87 443.79" style="stroke: black; fill: black;"/><path d="M 744.11,357.04 C 742.90 357.48, 742.53 358.34, 741.45 359.99 C 740.38 361.63, 739.84 362.53, 738.73 365.25 C 737.63 367.97, 737.34 369.95, 735.91 373.60 C 734.49 377.24, 733.52 379.27, 731.61 383.46 C 729.70 387.66, 728.58 390.06, 726.36 394.58 C 724.13 399.10, 722.88 401.48, 720.50 406.07 C 718.12 410.67, 716.81 413.12, 714.46 417.55 C 712.11 421.98, 710.80 424.19, 708.76 428.21 C 706.71 432.24, 705.79 434.21, 704.23 437.68 C 702.67 441.16, 701.75 442.74, 700.98 445.59 C 700.21 448.44, 700.17 449.80, 700.38 451.92 C 700.58 454.05, 701.12 454.98, 702.00 456.21 C 702.89 457.44, 703.83 457.81, 704.79 458.06 C 705.75 458.30, 706.41 458.06, 706.80 457.44 C 707.19 456.81, 706.83 455.55, 706.74 454.93 C 706.65 454.32, 706.40 454.55, 706.34 454.37 C 706.28 454.19, 706.37 454.46, 706.43 454.02 C 706.49 453.58, 706.29 453.47, 706.63 452.17 C 706.97 450.86, 707.49 449.97, 708.14 447.50 C 708.78 445.03, 708.79 443.24, 709.87 439.84 C 710.94 436.43, 711.71 434.48, 713.50 430.47 C 715.28 426.47, 716.54 424.24, 718.80 419.81 C 721.06 415.38, 722.37 412.90, 724.79 408.32 C 727.21 403.74, 728.50 401.36, 730.89 396.91 C 733.28 392.46, 734.48 390.12, 736.75 386.07 C 739.02 382.02, 740.21 380.13, 742.23 376.65 C 744.25 373.17, 745.57 371.56, 746.84 368.67 C 748.10 365.79, 748.40 364.40, 748.53 362.22 C 748.66 360.04, 748.38 358.81, 747.49 357.78 C 746.61 356.74, 745.31 356.59, 744.11 357.04" style="stroke: black; fill: black;"/><path d="M 793.63,366.02 C 792.34 366.04, 791.58 366.48, 790.32 367.66 C 789.05 368.83, 788.09 369.95, 787.29 371.90 C 786.49 373.85, 786.20 375.29, 786.30 377.41 C 786.41 379.52, 786.72 381.25, 787.80 382.48 C 788.88 383.72, 790.11 384.11, 791.68 383.58 C 793.26 383.05, 794.59 381.53, 795.68 379.82 C 796.76 378.12, 796.72 376.84, 797.12 375.06 C 797.52 373.28, 797.73 372.45, 797.66 370.94 C 797.59 369.44, 797.58 368.52, 796.78 367.54 C 795.97 366.55, 794.92 365.99, 793.63 366.02" style="stroke: black; fill: black;"/><path d="M 823.54,408.54 C 822.37 408.92, 822.04 409.63, 821.05 411.01 C 820.07 412.39, 819.50 413.26, 818.63 415.44 C 817.75 417.63, 817.71 419.27, 816.67 421.94 C 815.64 424.60, 814.87 426.07, 813.45 428.78 C 812.04 431.49, 811.09 433.01, 809.60 435.48 C 808.12 437.95, 807.03 439.12, 806.03 441.14 C 805.04 443.16, 804.57 444.12, 804.64 445.60 C 804.71 447.09, 805.22 447.95, 806.38 448.56 C 807.55 449.18, 808.74 449.43, 810.47 448.68 C 812.20 447.92, 813.32 447.06, 815.02 444.78 C 816.73 442.51, 816.93 440.38, 819.01 437.30 C 821.08 434.23, 822.70 432.48, 825.40 429.40 C 828.11 426.32, 829.57 424.60, 832.53 421.89 C 835.50 419.19, 837.25 417.77, 840.23 415.87 C 843.21 413.97, 845.20 413.57, 847.42 412.39 C 849.64 411.22, 850.36 410.49, 851.33 410.01 C 852.30 409.53, 852.27 409.57, 852.29 410.00 C 852.30 410.43, 851.98 410.86, 851.41 412.17 C 850.84 413.48, 850.24 414.29, 849.44 416.54 C 848.64 418.78, 848.35 420.58, 847.41 423.40 C 846.47 426.22, 845.81 427.90, 844.72 430.65 C 843.64 433.41, 842.77 434.79, 841.97 437.16 C 841.17 439.53, 840.71 440.70, 840.73 442.49 C 840.75 444.29, 841.04 445.08, 842.05 446.13 C 843.06 447.18, 844.02 447.80, 845.77 447.75 C 847.52 447.69, 848.92 447.48, 850.80 445.86 C 852.68 444.24, 853.10 442.39, 855.16 439.65 C 857.21 436.92, 858.37 435.08, 861.08 432.19 C 863.78 429.30, 865.64 427.76, 868.70 425.20 C 871.75 422.65, 873.37 421.27, 876.36 419.42 C 879.35 417.57, 881.06 417.01, 883.64 415.94 C 886.22 414.87, 887.55 414.56, 889.24 414.08 C 890.93 413.60, 891.40 413.44, 892.09 413.54 C 892.78 413.64, 892.81 413.72, 892.69 414.57 C 892.57 415.42, 892.04 416.03, 891.48 417.79 C 890.92 419.54, 890.73 420.79, 889.89 423.34 C 889.05 425.89, 888.43 427.64, 887.27 430.54 C 886.11 433.44, 885.19 435.14, 884.10 437.85 C 883.01 440.56, 882.41 441.78, 881.84 444.08 C 881.26 446.38, 881.11 447.67, 881.22 449.35 C 881.34 451.02, 881.71 451.76, 882.40 452.46 C 883.10 453.16, 883.84 453.15, 884.71 452.84 C 885.57 452.53, 885.81 452.07, 886.72 450.90 C 887.64 449.72, 888.21 448.90, 889.28 446.98 C 890.35 445.05, 890.86 443.88, 892.06 441.28 C 893.26 438.68, 893.89 436.98, 895.26 433.98 C 896.64 430.98, 897.97 429.33, 898.95 426.28 C 899.93 423.23, 900.23 421.47, 900.15 418.71 C 900.07 415.94, 899.72 414.52, 898.55 412.46 C 897.37 410.39, 896.33 409.45, 894.27 408.38 C 892.20 407.32, 890.92 406.97, 888.22 407.14 C 885.51 407.31, 883.82 407.86, 880.74 409.23 C 877.66 410.61, 876.03 411.81, 872.82 414.02 C 869.61 416.23, 868.00 417.66, 864.69 420.28 C 861.39 422.89, 859.52 424.41, 856.29 427.10 C 853.07 429.79, 851.19 431.28, 848.58 433.71 C 845.97 436.15, 844.52 437.26, 843.24 439.27 C 841.95 441.28, 841.97 442.40, 842.15 443.77 C 842.33 445.15, 843.13 445.90, 844.15 446.15 C 845.16 446.39, 846.08 446.13, 847.22 445.00 C 848.37 443.87, 848.76 442.69, 849.88 440.50 C 851.01 438.30, 851.61 436.82, 852.84 434.05 C 854.06 431.27, 854.78 429.60, 856.01 426.62 C 857.24 423.64, 858.38 422.02, 858.98 419.14 C 859.58 416.25, 859.56 414.64, 859.00 412.19 C 858.44 409.73, 857.76 408.43, 856.17 406.86 C 854.57 405.30, 853.42 404.66, 851.02 404.37 C 848.61 404.08, 847.05 404.17, 844.14 405.40 C 841.24 406.63, 839.63 408.14, 836.49 410.53 C 833.34 412.93, 831.57 414.50, 828.41 417.38 C 825.26 420.25, 823.79 421.94, 820.71 424.92 C 817.63 427.90, 815.82 429.53, 813.01 432.27 C 810.20 435.01, 808.40 436.25, 806.67 438.62 C 804.95 441.00, 804.62 442.28, 804.40 444.14 C 804.17 446.00, 804.62 446.98, 805.54 447.93 C 806.45 448.88, 807.45 449.31, 808.97 448.90 C 810.48 448.50, 811.51 447.71, 813.10 445.90 C 814.69 444.08, 815.39 442.44, 816.92 439.83 C 818.45 437.22, 819.10 435.66, 820.76 432.86 C 822.42 430.05, 823.75 428.70, 825.23 425.81 C 826.71 422.93, 827.54 421.05, 828.17 418.42 C 828.79 415.78, 828.62 414.51, 828.37 412.65 C 828.11 410.78, 827.85 409.92, 826.89 409.10 C 825.92 408.28, 824.70 408.16, 823.54 408.54" style="stroke: black; fill: black;"/><path d="M 1030.30,379.65 C 1029.31 380.43, 1029.23 381.26, 1028.72 383.05 C 1028.20 384.83, 1027.95 385.90, 1027.72 388.58 C 1027.49 391.26, 1027.87 392.97, 1027.57 396.47 C 1027.26 399.96, 1026.96 402.03, 1026.20 406.04 C 1025.45 410.06, 1024.81 412.31, 1023.80 416.53 C 1022.78 420.76, 1022.15 422.91, 1021.14 427.17 C 1020.13 431.42, 1019.51 433.80, 1018.74 437.80 C 1017.96 441.80, 1017.83 443.69, 1017.28 447.17 C 1016.74 450.65, 1016.34 452.29, 1016.01 455.21 C 1015.68 458.12, 1015.48 459.41, 1015.64 461.76 C 1015.80 464.12, 1015.95 465.32, 1016.81 467.00 C 1017.67 468.68, 1018.40 469.40, 1019.93 470.17 C 1021.46 470.94, 1022.63 471.13, 1024.45 470.84 C 1026.27 470.54, 1027.27 470.19, 1029.03 468.71 C 1030.78 467.22, 1031.35 466.13, 1033.24 463.40 C 1035.13 460.68, 1035.96 458.80, 1038.47 455.10 C 1040.99 451.40, 1042.40 449.28, 1045.81 444.90 C 1049.22 440.52, 1051.30 438.07, 1055.52 433.21 C 1059.74 428.35, 1062.32 425.49, 1066.92 420.59 C 1071.52 415.68, 1073.89 413.27, 1078.52 408.68 C 1083.15 404.08, 1085.61 401.75, 1090.05 397.62 C 1094.49 393.49, 1096.73 391.36, 1100.71 388.02 C 1104.69 384.67, 1106.69 383.19, 1109.95 380.90 C 1113.21 378.61, 1114.83 378.17, 1117.01 376.58 C 1119.19 374.99, 1119.73 374.13, 1120.86 372.95 C 1122.00 371.76, 1122.49 371.51, 1122.68 370.65 C 1122.87 369.80, 1122.67 369.07, 1121.82 368.68 C 1120.96 368.28, 1120.17 368.21, 1118.42 368.68 C 1116.67 369.14, 1115.41 369.39, 1113.06 371.01 C 1110.71 372.63, 1109.72 374.03, 1106.67 376.78 C 1103.61 379.52, 1101.66 381.13, 1097.80 384.73 C 1093.94 388.33, 1091.75 390.54, 1087.37 394.80 C 1082.99 399.06, 1080.54 401.41, 1075.90 406.04 C 1071.25 410.67, 1068.85 413.08, 1064.15 417.96 C 1059.46 422.84, 1056.84 425.68, 1052.44 430.44 C 1048.03 435.21, 1045.86 437.63, 1042.11 441.79 C 1038.36 445.95, 1036.77 447.99, 1033.68 451.22 C 1030.58 454.45, 1028.87 455.67, 1026.63 457.95 C 1024.39 460.24, 1023.52 461.11, 1022.47 462.66 C 1021.42 464.22, 1021.44 464.92, 1021.40 465.74 C 1021.35 466.56, 1021.95 466.85, 1022.26 466.78 C 1022.57 466.71, 1022.79 466.39, 1022.94 465.38 C 1023.09 464.37, 1022.86 463.63, 1022.99 461.72 C 1023.12 459.82, 1023.45 458.63, 1023.61 455.86 C 1023.77 453.09, 1023.59 451.28, 1023.79 447.87 C 1023.98 444.46, 1024.00 442.69, 1024.59 438.81 C 1025.17 434.93, 1025.74 432.65, 1026.72 428.48 C 1027.69 424.32, 1028.31 422.18, 1029.46 417.99 C 1030.61 413.80, 1031.34 411.55, 1032.47 407.51 C 1033.60 403.47, 1034.19 401.42, 1035.13 397.78 C 1036.06 394.15, 1036.93 392.36, 1037.16 389.34 C 1037.39 386.32, 1036.99 384.72, 1036.29 382.68 C 1035.58 380.64, 1034.85 379.75, 1033.65 379.14 C 1032.45 378.54, 1031.29 378.87, 1030.30 379.65" style="stroke: black; fill: black;"/><path d="M 1127.10,418.89 C 1125.66 419.04, 1124.42 419.65, 1122.72 421.55 C 1121.02 423.45, 1120.41 425.14, 1118.60 428.38 C 1116.79 431.62, 1115.64 433.99, 1113.67 437.75 C 1111.70 441.52, 1110.64 443.64, 1108.76 447.20 C 1106.88 450.77, 1105.83 452.57, 1104.28 455.58 C 1102.72 458.59, 1101.88 459.97, 1101.00 462.26 C 1100.12 464.54, 1099.91 465.48, 1099.87 467.01 C 1099.83 468.55, 1100.38 469.22, 1100.80 469.94 C 1101.22 470.66, 1101.56 470.49, 1101.96 470.62 C 1102.37 470.75, 1102.44 470.66, 1102.84 470.59 C 1103.24 470.52, 1103.43 470.64, 1103.97 470.27 C 1104.50 469.90, 1104.76 469.76, 1105.50 468.75 C 1106.25 467.73, 1106.68 467.22, 1107.69 465.20 C 1108.71 463.18, 1109.21 461.63, 1110.57 458.63 C 1111.93 455.64, 1112.67 453.71, 1114.50 450.21 C 1116.32 446.71, 1117.52 444.72, 1119.68 441.14 C 1121.85 437.56, 1123.42 435.42, 1125.32 432.31 C 1127.23 429.20, 1128.28 427.88, 1129.20 425.58 C 1130.11 423.27, 1130.31 422.13, 1129.89 420.80 C 1129.47 419.46, 1128.53 418.74, 1127.10 418.89" style="stroke: black; fill: black;"/><path d="M 1140.50,392.14 C 1140.62 390.87, 1140.50 390.09, 1140.22 390.06 C 1139.94 390.04, 1139.50 390.86, 1139.08 392.02 C 1138.66 393.18, 1138.27 394.63, 1138.13 395.86 C 1137.98 397.09, 1138.06 398.05, 1138.35 398.16 C 1138.64 398.27, 1139.15 397.61, 1139.58 396.40 C 1140.01 395.20, 1140.37 393.41, 1140.50 392.14" style="stroke: black; fill: black;"/><path d="M 1166.47,426.46 C 1165.39 425.97, 1164.55 426.12, 1163.07 426.70 C 1161.60 427.28, 1160.78 427.72, 1159.09 429.35 C 1157.40 430.98, 1156.37 432.20, 1154.61 434.84 C 1152.85 437.49, 1152.08 439.46, 1150.27 442.59 C 1148.47 445.71, 1147.38 447.53, 1145.58 450.47 C 1143.79 453.41, 1142.57 454.71, 1141.31 457.28 C 1140.06 459.85, 1139.47 461.17, 1139.31 463.31 C 1139.16 465.45, 1139.45 466.64, 1140.54 467.99 C 1141.64 469.35, 1142.86 469.97, 1144.81 470.08 C 1146.75 470.18, 1148.17 470.01, 1150.27 468.52 C 1152.38 467.03, 1153.15 465.41, 1155.33 462.62 C 1157.51 459.83, 1158.47 457.88, 1161.16 454.56 C 1163.86 451.24, 1165.56 449.26, 1168.80 446.00 C 1172.03 442.74, 1174.00 440.95, 1177.35 438.26 C 1180.71 435.56, 1182.55 434.32, 1185.57 432.53 C 1188.60 430.74, 1190.27 430.25, 1192.47 429.31 C 1194.68 428.37, 1195.39 428.01, 1196.60 427.83 C 1197.81 427.66, 1198.14 427.92, 1198.54 428.44 C 1198.93 428.97, 1198.86 429.20, 1198.56 430.44 C 1198.27 431.69, 1197.71 432.47, 1197.08 434.67 C 1196.45 436.87, 1196.34 438.61, 1195.42 441.44 C 1194.50 444.28, 1193.75 445.88, 1192.49 448.83 C 1191.22 451.79, 1190.26 453.52, 1189.08 456.24 C 1187.91 458.96, 1187.27 460.33, 1186.63 462.43 C 1185.98 464.53, 1185.94 465.35, 1185.87 466.75 C 1185.79 468.15, 1185.92 468.65, 1186.24 469.43 C 1186.56 470.22, 1187.00 470.51, 1187.48 470.68 C 1187.96 470.85, 1188.25 470.37, 1188.64 470.29 C 1189.04 470.20, 1188.87 470.49, 1189.45 470.24 C 1190.03 469.99, 1190.70 469.99, 1191.57 469.04 C 1192.43 468.09, 1192.72 467.35, 1193.78 465.48 C 1194.83 463.61, 1195.59 462.37, 1196.83 459.69 C 1198.06 457.02, 1198.58 455.15, 1199.94 452.11 C 1201.31 449.07, 1202.38 447.61, 1203.66 444.49 C 1204.94 441.37, 1205.93 439.53, 1206.35 436.53 C 1206.76 433.54, 1206.51 431.96, 1205.74 429.52 C 1204.97 427.07, 1204.28 425.88, 1202.51 424.32 C 1200.74 422.76, 1199.44 422.05, 1196.89 421.70 C 1194.34 421.35, 1192.70 421.44, 1189.76 422.57 C 1186.83 423.69, 1185.40 425.08, 1182.20 427.34 C 1179.00 429.59, 1177.23 430.95, 1173.75 433.85 C 1170.26 436.75, 1168.25 438.59, 1164.77 441.84 C 1161.28 445.10, 1159.47 447.09, 1156.33 450.10 C 1153.19 453.11, 1151.55 454.58, 1149.07 456.90 C 1146.58 459.21, 1145.19 460.00, 1143.89 461.68 C 1142.60 463.35, 1142.67 464.24, 1142.60 465.27 C 1142.53 466.29, 1142.96 466.76, 1143.56 466.82 C 1144.16 466.89, 1144.57 466.71, 1145.60 465.59 C 1146.63 464.48, 1147.38 463.50, 1148.71 461.27 C 1150.04 459.04, 1150.58 457.32, 1152.26 454.46 C 1153.93 451.60, 1155.08 449.77, 1157.08 446.97 C 1159.09 444.18, 1160.43 442.78, 1162.29 440.49 C 1164.16 438.19, 1165.27 437.25, 1166.42 435.50 C 1167.56 433.75, 1167.60 433.00, 1168.01 431.73 C 1168.42 430.46, 1168.76 430.21, 1168.45 429.16 C 1168.14 428.10, 1167.54 426.95, 1166.47 426.46" style="stroke: black; fill: black;"/><path d="M 1235.81,432.94 C 1234.75 432.90, 1234.47 433.13, 1233.32 433.88 C 1232.16 434.64, 1231.43 434.99, 1230.04 436.73 C 1228.66 438.46, 1228.03 439.93, 1226.38 442.57 C 1224.73 445.22, 1223.66 447.11, 1221.79 449.94 C 1219.92 452.77, 1218.81 454.24, 1217.04 456.72 C 1215.27 459.20, 1213.89 460.25, 1212.94 462.34 C 1212.00 464.43, 1211.84 465.74, 1212.31 467.17 C 1212.79 468.60, 1213.82 469.36, 1215.32 469.48 C 1216.81 469.59, 1218.09 469.34, 1219.79 467.75 C 1221.48 466.15, 1221.78 464.44, 1223.79 461.49 C 1225.80 458.54, 1226.93 456.36, 1229.83 452.98 C 1232.72 449.61, 1234.64 447.77, 1238.25 444.61 C 1241.86 441.44, 1244.04 439.80, 1247.87 437.14 C 1251.70 434.48, 1253.87 433.13, 1257.41 431.31 C 1260.96 429.49, 1262.73 428.95, 1265.59 428.06 C 1268.45 427.17, 1269.85 427.09, 1271.73 426.87 C 1273.60 426.65, 1274.20 426.52, 1274.96 426.96 C 1275.71 427.40, 1275.58 427.79, 1275.50 429.09 C 1275.43 430.39, 1275.07 431.23, 1274.58 433.45 C 1274.09 435.67, 1273.92 437.25, 1273.05 440.18 C 1272.18 443.11, 1271.50 444.98, 1270.23 448.10 C 1268.95 451.22, 1267.97 452.86, 1266.67 455.77 C 1265.36 458.68, 1264.48 460.12, 1263.70 462.65 C 1262.91 465.18, 1262.70 466.46, 1262.74 468.44 C 1262.79 470.42, 1263.23 471.46, 1263.92 472.54 C 1264.61 473.62, 1265.43 473.81, 1266.17 473.85 C 1266.92 473.88, 1267.25 473.14, 1267.65 472.72 C 1268.05 472.30, 1267.80 472.38, 1268.17 471.75 C 1268.54 471.13, 1268.90 470.89, 1269.51 469.60 C 1270.11 468.32, 1270.32 467.46, 1271.20 465.33 C 1272.08 463.20, 1272.66 461.81, 1273.90 458.97 C 1275.14 456.14, 1275.96 454.37, 1277.39 451.15 C 1278.81 447.92, 1279.82 446.15, 1281.03 442.85 C 1282.24 439.55, 1283.23 437.74, 1283.45 434.64 C 1283.67 431.54, 1283.22 429.85, 1282.15 427.35 C 1281.08 424.86, 1280.24 423.61, 1278.11 422.16 C 1275.97 420.70, 1274.41 420.15, 1271.48 420.10 C 1268.56 420.05, 1266.83 420.66, 1263.47 421.91 C 1260.12 423.17, 1258.43 424.20, 1254.70 426.38 C 1250.98 428.57, 1248.84 430.01, 1244.85 432.83 C 1240.86 435.64, 1238.66 437.31, 1234.76 440.46 C 1230.86 443.61, 1228.85 445.44, 1225.34 448.58 C 1221.83 451.73, 1219.85 453.39, 1217.22 456.20 C 1214.59 459.01, 1213.10 460.32, 1212.17 462.62 C 1211.24 464.93, 1211.85 466.39, 1212.57 467.72 C 1213.28 469.05, 1214.35 469.39, 1215.77 469.26 C 1217.18 469.14, 1218.03 468.62, 1219.65 467.09 C 1221.27 465.56, 1222.07 464.07, 1223.85 461.61 C 1225.63 459.15, 1226.47 457.47, 1228.56 454.77 C 1230.64 452.07, 1232.25 450.66, 1234.26 448.11 C 1236.26 445.55, 1237.51 444.22, 1238.57 442.00 C 1239.63 439.78, 1239.55 438.58, 1239.56 437.00 C 1239.58 435.42, 1239.39 434.91, 1238.64 434.10 C 1237.89 433.28, 1236.88 432.98, 1235.81 432.94" style="stroke: black; fill: black;"/></svg>