<svg xmlns="http://www.w3.org/2000/svg" id="canvas" viewBox="292.999 324.737 1239.362 263.590"><path d="M 315.78,351.56 C 315.00 352.26, 314.24 353.04, 313.46 355.57 C 312.68 358.10, 312.60 359.84, 311.90 364.21 C 311.19 368.59, 310.81 371.20, 309.93 377.44 C 309.06 383.68, 308.49 387.22, 307.53 395.42 C 306.56 403.61, 306.04 408.47, 305.10 418.42 C 304.17 428.37, 303.72 434.19, 302.87 445.17 C 302.01 456.15, 301.57 462.13, 300.85 473.31 C 300.12 484.49, 299.89 490.43, 299.24 501.09 C 298.60 511.74, 298.15 517.03, 297.64 526.57 C 297.12 536.11, 296.97 540.78, 296.65 548.79 C 296.32 556.79, 296.02 560.60, 296.00 566.59 C 295.98 572.59, 296.23 575.17, 296.54 578.76 C 296.85 582.34, 297.12 583.37, 297.54 584.50 C 297.96 585.64, 298.39 585.59, 298.62 584.42 C 298.85 583.24, 298.84 582.19, 298.69 578.62 C 298.54 575.05, 297.99 572.54, 297.87 566.58 C 297.76 560.62, 297.92 556.82, 298.13 548.83 C 298.34 540.85, 298.46 536.17, 298.92 526.64 C 299.38 517.10, 299.81 511.81, 300.44 501.16 C 301.06 490.51, 301.29 484.56, 302.03 473.39 C 302.77 462.21, 303.22 456.23, 304.12 445.27 C 305.02 434.30, 305.50 428.48, 306.52 418.56 C 307.55 408.63, 308.11 403.79, 309.25 395.64 C 310.38 387.49, 311.05 383.98, 312.21 377.82 C 313.37 371.65, 314.04 369.09, 315.03 364.82 C 316.01 360.56, 316.66 359.03, 317.14 356.48 C 317.61 353.92, 317.67 353.04, 317.39 352.05 C 317.12 351.07, 316.57 350.86, 315.78 351.56" style="stroke: black; fill: black;"/><path d="M 353.77,355.52 C 353.27 356.30, 352.97 356.71, 352.81 359.39 C 352.65 362.07, 352.98 363.76, 352.98 368.92 C 352.98 374.08, 352.91 377.38, 352.83 385.21 C 352.75 393.03, 352.79 398.17, 352.59 408.04 C 352.40 417.92, 352.12 423.48, 351.85 434.60 C 351.59 445.71, 351.43 451.90, 351.27 463.63 C 351.11 475.36, 351.18 481.69, 351.05 493.25 C 350.93 504.82, 350.91 510.98, 350.64 521.48 C 350.38 531.97, 350.18 537.12, 349.72 545.75 C 349.25 554.39, 349.04 558.51, 348.34 564.66 C 347.64 570.82, 346.82 573.08, 346.21 576.52 C 345.60 579.96, 345.60 580.55, 345.30 581.86 C 345.00 583.18, 344.76 582.76, 344.72 583.09 C 344.68 583.41, 344.69 583.61, 345.11 583.48 C 345.53 583.36, 346.11 583.75, 346.82 582.45 C 347.53 581.15, 348.01 580.49, 348.66 576.97 C 349.31 573.44, 349.59 571.06, 350.08 564.83 C 350.56 558.60, 350.74 554.48, 351.09 545.82 C 351.44 537.15, 351.62 532.01, 351.84 521.50 C 352.06 510.99, 352.07 504.84, 352.18 493.27 C 352.30 481.69, 352.23 475.37, 352.41 463.64 C 352.60 451.92, 352.77 445.74, 353.11 434.63 C 353.44 423.52, 353.75 417.96, 354.09 408.08 C 354.43 398.21, 354.47 393.08, 354.80 385.26 C 355.13 377.44, 355.43 374.17, 355.74 369.00 C 356.06 363.84, 356.47 362.14, 356.38 359.44 C 356.28 356.73, 355.79 356.27, 355.27 355.49 C 354.75 354.70, 354.26 354.73, 353.77 355.52" style="stroke: black; fill: black;"/><path d="M 309.16,475.99 C 309.79 476.79, 310.74 477.39, 312.86 478.26 C 314.99 479.13, 316.38 479.58, 319.76 480.36 C 323.13 481.14, 325.46 481.73, 329.74 482.17 C 334.03 482.61, 336.37 482.63, 341.19 482.57 C 346.01 482.50, 348.73 482.48, 353.83 481.85 C 358.93 481.22, 361.67 480.84, 366.70 479.42 C 371.72 477.99, 374.29 476.97, 378.94 474.72 C 383.60 472.48, 386.01 471.12, 389.97 468.18 C 393.93 465.25, 395.84 463.55, 398.76 460.06 C 401.67 456.57, 402.92 454.47, 404.56 450.75 C 406.20 447.02, 406.79 444.83, 406.96 441.42 C 407.14 438.01, 406.76 436.27, 405.45 433.69 C 404.13 431.10, 402.91 429.85, 400.41 428.51 C 397.90 427.17, 396.11 426.61, 392.92 426.99 C 389.74 427.36, 387.75 428.10, 384.49 430.39 C 381.22 432.69, 379.46 434.32, 376.60 438.46 C 373.74 442.60, 372.33 445.27, 370.20 451.08 C 368.08 456.89, 367.07 460.46, 365.97 467.52 C 364.87 474.58, 364.54 478.90, 364.69 486.39 C 364.84 493.88, 365.34 497.81, 366.72 504.97 C 368.09 512.13, 369.03 515.92, 371.57 522.21 C 374.10 528.49, 375.80 531.73, 379.40 536.41 C 382.99 541.09, 385.21 543.04, 389.55 545.59 C 393.88 548.13, 396.37 549.05, 401.09 549.14 C 405.82 549.23, 408.47 548.64, 413.17 546.06 C 417.88 543.47, 420.19 541.42, 424.62 536.22 C 429.05 531.02, 431.29 527.72, 435.32 520.06 C 439.34 512.39, 441.27 507.66, 444.76 497.89 C 448.25 488.12, 449.91 482.38, 452.78 471.21 C 455.65 460.03, 456.90 453.76, 459.11 442.00 C 461.33 430.25, 462.32 423.77, 463.84 412.42 C 465.35 401.07, 466.02 395.18, 466.70 385.27 C 467.37 375.37, 467.30 370.53, 467.21 362.90 C 467.11 355.26, 467.15 351.88, 466.22 347.11 C 465.29 342.34, 464.48 340.14, 462.56 339.03 C 460.64 337.93, 459.02 338.36, 456.61 341.57 C 454.19 344.79, 452.80 347.92, 450.49 355.12 C 448.18 362.32, 447.02 367.31, 445.06 377.56 C 443.11 387.81, 442.01 394.14, 440.71 406.37 C 439.42 418.60, 438.89 425.79, 438.60 438.73 C 438.32 451.67, 438.44 458.79, 439.28 471.06 C 440.12 483.33, 440.88 489.64, 442.83 500.06 C 444.77 510.49, 446.07 515.44, 449.00 523.18 C 451.92 530.92, 453.50 534.22, 457.44 538.78 C 461.38 543.33, 463.96 545.20, 468.71 545.96 C 473.46 546.71, 476.14 545.81, 481.19 542.55 C 486.24 539.29, 488.96 536.53, 493.95 529.66 C 498.94 522.78, 501.56 518.05, 506.14 508.17 C 510.73 498.30, 513.01 492.24, 516.86 480.27 C 520.71 468.31, 522.40 461.31, 525.40 448.36 C 528.39 435.40, 529.64 428.12, 531.84 415.50 C 534.04 402.89, 534.92 396.45, 536.40 385.29 C 537.88 374.13, 538.57 368.57, 539.24 359.72 C 539.90 350.88, 539.98 346.92, 539.74 341.07 C 539.51 335.23, 539.45 333.05, 538.08 330.48 C 536.70 327.90, 535.18 327.14, 532.87 328.20 C 530.56 329.25, 529.11 330.95, 526.52 335.74 C 523.92 340.52, 522.56 344.16, 519.91 352.13 C 517.26 360.10, 515.74 365.07, 513.27 375.59 C 510.80 386.10, 509.38 392.43, 507.56 404.71 C 505.74 416.99, 504.96 424.18, 504.16 436.98 C 503.36 449.79, 503.19 456.65, 503.57 468.75 C 503.94 480.86, 504.43 487.09, 506.03 497.52 C 507.64 507.95, 508.76 513.04, 511.60 520.90 C 514.44 528.76, 516.22 532.03, 520.24 536.82 C 524.26 541.62, 526.69 543.27, 531.69 544.90 C 536.69 546.53, 539.60 546.47, 545.24 544.99 C 550.89 543.51, 554.12 541.77, 559.91 537.52 C 565.71 533.27, 568.75 530.06, 574.22 523.76 C 579.68 517.46, 582.51 513.38, 587.23 506.02 C 591.95 498.65, 594.28 494.31, 597.82 486.95 C 601.37 479.58, 602.88 475.60, 604.96 469.17 C 607.04 462.74, 607.74 459.65, 608.23 454.82 C 608.71 449.98, 608.66 447.80, 607.37 444.99 C 606.08 442.18, 604.56 440.96, 601.78 440.77 C 599.00 440.58, 596.84 441.47, 593.49 444.06 C 590.14 446.66, 588.20 448.97, 585.03 453.74 C 581.86 458.50, 580.06 461.66, 577.64 467.89 C 575.21 474.13, 574.00 478.15, 572.92 484.90 C 571.84 491.66, 571.62 495.40, 572.23 501.68 C 572.83 507.95, 573.54 511.18, 575.94 516.26 C 578.35 521.35, 580.28 523.90, 584.26 527.10 C 588.24 530.29, 590.96 531.40, 595.82 532.23 C 600.69 533.07, 603.53 532.66, 608.60 531.26 C 613.68 529.86, 616.67 528.57, 621.21 525.22 C 625.76 521.86, 628.11 519.48, 631.32 514.47 C 634.52 509.45, 635.79 506.34, 637.24 500.14 C 638.69 493.94, 638.94 490.08, 638.57 483.47 C 638.20 476.87, 637.39 473.13, 635.39 467.12 C 633.39 461.11, 631.76 458.18, 628.56 453.42 C 625.36 448.65, 623.27 446.43, 619.40 443.29 C 615.52 440.16, 613.08 439.05, 609.18 437.74 C 605.28 436.44, 603.08 436.25, 599.90 436.78 C 596.72 437.30, 595.08 438.35, 593.27 440.38 C 591.45 442.40, 590.86 444.26, 590.83 446.89 C 590.80 449.53, 591.37 451.26, 593.11 453.54 C 594.85 455.82, 596.23 457.23, 599.53 458.28 C 602.83 459.32, 607.54 459.24, 609.63 458.76 C 611.72 458.28, 611.72 456.82, 609.98 455.88 C 608.24 454.93, 603.70 454.99, 600.93 454.03 C 598.16 453.07, 597.42 452.51, 596.13 451.08 C 594.83 449.64, 594.52 448.55, 594.45 446.86 C 594.37 445.16, 594.55 443.95, 595.75 442.61 C 596.96 441.28, 597.96 440.61, 600.47 440.19 C 602.98 439.76, 604.84 439.48, 608.32 440.48 C 611.81 441.48, 614.21 442.37, 617.90 445.20 C 621.59 448.03, 623.66 450.11, 626.77 454.63 C 629.88 459.15, 631.49 461.98, 633.45 467.77 C 635.41 473.56, 636.20 477.21, 636.56 483.59 C 636.92 489.97, 636.65 493.73, 635.24 499.67 C 633.83 505.61, 632.57 508.55, 629.49 513.29 C 626.41 518.03, 624.15 520.21, 619.85 523.35 C 615.54 526.48, 612.69 527.65, 607.97 528.96 C 603.24 530.27, 600.67 530.62, 596.22 529.89 C 591.76 529.17, 589.35 528.23, 585.67 525.32 C 582.00 522.42, 580.14 520.12, 577.85 515.35 C 575.56 510.58, 574.82 507.51, 574.23 501.48 C 573.65 495.46, 573.83 491.78, 574.92 485.23 C 576.02 478.68, 577.25 474.72, 579.71 468.72 C 582.16 462.72, 584.07 459.68, 587.21 455.23 C 590.35 450.78, 592.49 448.83, 595.39 446.46 C 598.30 444.10, 599.83 443.47, 601.72 443.39 C 603.62 443.31, 604.01 443.81, 604.87 446.06 C 605.73 448.30, 606.33 450.11, 606.01 454.63 C 605.68 459.14, 605.17 462.30, 603.24 468.63 C 601.31 474.95, 599.84 478.94, 596.37 486.25 C 592.90 493.56, 590.58 497.88, 585.89 505.16 C 581.21 512.44, 578.36 516.48, 572.94 522.65 C 567.53 528.83, 564.46 531.93, 558.82 536.02 C 553.18 540.11, 550.06 541.69, 544.74 543.11 C 539.43 544.53, 536.91 544.60, 532.26 543.14 C 527.60 541.67, 525.35 540.33, 521.47 535.79 C 517.59 531.25, 515.72 528.13, 512.86 520.44 C 510.01 512.75, 508.83 507.69, 507.18 497.34 C 505.53 487.00, 505.02 480.78, 504.63 468.72 C 504.24 456.66, 504.41 449.82, 505.22 437.05 C 506.03 424.28, 506.82 417.11, 508.70 404.88 C 510.58 392.65, 512.03 386.34, 514.62 375.91 C 517.21 365.48, 518.85 360.54, 521.65 352.73 C 524.45 344.92, 526.17 341.42, 528.61 336.87 C 531.05 332.31, 532.37 331.07, 533.87 329.97 C 535.37 328.87, 535.28 329.14, 536.10 331.38 C 536.93 333.62, 537.63 335.51, 538.00 341.17 C 538.36 346.82, 538.46 350.84, 537.92 359.63 C 537.38 368.43, 536.72 374.01, 535.30 385.15 C 533.88 396.29, 533.01 402.73, 530.83 415.33 C 528.65 427.92, 527.40 435.20, 524.39 448.12 C 521.38 461.04, 519.68 468.03, 515.79 479.93 C 511.90 491.82, 509.57 497.85, 504.94 507.61 C 500.32 517.37, 497.61 522.03, 492.66 528.71 C 487.71 535.39, 484.92 537.92, 480.19 541.00 C 475.46 544.09, 473.30 544.79, 468.99 544.13 C 464.69 543.47, 462.42 541.99, 458.67 537.70 C 454.93 533.42, 453.20 530.27, 450.26 522.70 C 447.32 515.12, 445.95 510.19, 443.96 499.85 C 441.98 489.51, 441.20 483.21, 440.34 470.99 C 439.48 458.77, 439.36 451.65, 439.67 438.76 C 439.98 425.86, 440.52 418.68, 441.89 406.50 C 443.27 394.32, 444.44 388.00, 446.53 377.85 C 448.62 367.70, 449.93 362.73, 452.34 355.74 C 454.74 348.74, 456.67 345.97, 458.54 342.89 C 460.42 339.81, 460.56 339.41, 461.71 340.33 C 462.85 341.25, 463.48 342.95, 464.27 347.47 C 465.07 351.99, 465.46 355.39, 465.70 362.93 C 465.93 370.47, 466.05 375.32, 465.45 385.19 C 464.85 395.06, 464.20 400.95, 462.71 412.27 C 461.22 423.59, 460.23 430.07, 458.01 441.80 C 455.79 453.52, 454.52 459.78, 451.62 470.91 C 448.72 482.03, 447.04 487.75, 443.49 497.43 C 439.95 507.11, 437.97 511.79, 433.90 519.30 C 429.84 526.81, 427.53 530.01, 423.17 534.97 C 418.81 539.93, 416.52 541.74, 412.12 544.11 C 407.71 546.48, 405.43 546.91, 401.14 546.82 C 396.85 546.74, 394.69 546.00, 390.66 543.67 C 386.63 541.34, 384.47 539.60, 381.00 535.17 C 377.52 530.73, 375.79 527.61, 373.28 521.51 C 370.78 515.40, 369.82 511.66, 368.47 504.63 C 367.11 497.60, 366.62 493.72, 366.52 486.36 C 366.41 479.00, 366.77 474.73, 367.93 467.84 C 369.10 460.94, 370.15 457.44, 372.34 451.89 C 374.52 446.34, 376.05 443.82, 378.86 440.09 C 381.67 436.36, 383.48 435.07, 386.39 433.26 C 389.30 431.44, 390.94 431.31, 393.41 431.01 C 395.88 430.70, 396.98 430.89, 398.75 431.74 C 400.52 432.60, 401.32 433.38, 402.26 435.29 C 403.20 437.19, 403.55 438.41, 403.45 441.26 C 403.34 444.11, 403.09 446.14, 401.73 449.55 C 400.36 452.96, 399.29 455.00, 396.63 458.31 C 393.97 461.63, 392.18 463.29, 388.43 466.12 C 384.67 468.95, 382.34 470.30, 377.86 472.48 C 373.37 474.65, 370.88 475.65, 366.02 477.00 C 361.15 478.35, 358.50 478.71, 353.53 479.24 C 348.57 479.77, 345.86 479.76, 341.20 479.66 C 336.53 479.56, 334.29 479.42, 330.20 478.73 C 326.12 478.04, 324.03 477.08, 320.78 476.23 C 317.54 475.37, 316.19 474.85, 313.98 474.45 C 311.76 474.06, 310.65 473.96, 309.69 474.26 C 308.72 474.57, 308.52 475.19, 309.16 475.99" style="stroke: black; fill: black;"/><path d="M 660.25,507.77 C 659.76 509.03, 659.83 510.67, 659.59 514.05 C 659.35 517.43, 659.57 519.76, 659.05 524.69 C 658.54 529.62, 658.15 532.73, 657.02 538.70 C 655.88 544.67, 655.03 548.41, 653.39 554.53 C 651.76 560.66, 650.38 564.37, 648.84 569.32 C 647.30 574.28, 646.46 576.31, 645.69 579.31 C 644.92 582.32, 644.92 583.29, 644.99 584.36 C 645.05 585.44, 645.38 585.53, 646.03 584.67 C 646.67 583.82, 647.16 583.01, 648.21 580.09 C 649.26 577.16, 649.78 575.05, 651.26 570.06 C 652.75 565.07, 654.00 561.30, 655.63 555.13 C 657.27 548.95, 658.18 545.20, 659.44 539.18 C 660.70 533.16, 661.23 530.04, 661.92 525.04 C 662.61 520.04, 662.87 517.64, 662.90 514.18 C 662.93 510.72, 662.59 509.02, 662.06 507.74 C 661.53 506.46, 660.74 506.51, 660.25 507.77" style="stroke: black; fill: black;"/><path d="M 787.35,339.53 C 787.00 339.89, 787.00 339.64, 786.77 340.89 C 786.54 342.14, 786.09 342.91, 786.19 345.78 C 786.29 348.66, 786.97 350.47, 787.29 355.26 C 787.60 360.05, 787.59 363.09, 787.76 369.73 C 787.93 376.38, 788.03 380.41, 788.12 388.50 C 788.22 396.59, 788.17 401.02, 788.22 410.17 C 788.28 419.32, 788.42 424.33, 788.37 434.25 C 788.32 444.17, 788.08 449.78, 787.97 459.76 C 787.87 469.74, 787.90 474.87, 787.87 484.15 C 787.83 493.44, 787.86 498.19, 787.81 506.20 C 787.76 514.20, 787.71 517.99, 787.60 524.19 C 787.50 530.39, 787.41 533.14, 787.29 537.19 C 787.18 541.24, 787.01 542.34, 787.03 544.45 C 787.06 546.56, 787.17 547.07, 787.43 547.74 C 787.70 548.42, 787.99 548.45, 788.36 547.82 C 788.73 547.19, 789.02 546.70, 789.30 544.58 C 789.58 542.46, 789.72 541.31, 789.75 537.23 C 789.78 533.15, 789.53 530.40, 789.44 524.19 C 789.36 517.99, 789.37 514.20, 789.33 506.20 C 789.28 498.19, 789.24 493.44, 789.23 484.15 C 789.23 474.87, 789.20 469.76, 789.30 459.78 C 789.40 449.80, 789.66 444.18, 789.74 434.26 C 789.82 424.34, 789.69 419.33, 789.72 410.17 C 789.75 401.02, 789.83 396.58, 789.88 388.49 C 789.94 380.40, 789.89 376.38, 790.01 369.72 C 790.12 363.07, 790.24 360.05, 790.46 355.23 C 790.67 350.41, 791.16 348.56, 791.07 345.63 C 790.99 342.69, 790.54 341.83, 790.03 340.54 C 789.52 339.24, 789.05 339.34, 788.51 339.14 C 787.98 338.94, 787.70 339.18, 787.35 339.53" style="stroke: black; fill: black;"/><path d="M 862.82,343.41 C 862.31 344.64, 862.14 346.22, 862.05 349.50 C 861.96 352.79, 862.28 355.19, 862.37 359.86 C 862.45 364.52, 862.52 367.39, 862.47 372.83 C 862.43 378.26, 862.36 381.25, 862.13 387.03 C 861.90 392.80, 861.55 395.87, 861.31 401.69 C 861.08 407.51, 860.86 410.98, 860.96 416.13 C 861.05 421.28, 861.35 423.84, 861.79 427.45 C 862.24 431.06, 862.61 432.88, 863.16 434.19 C 863.72 435.51, 864.31 435.44, 864.56 434.04 C 864.82 432.64, 864.64 430.80, 864.43 427.21 C 864.22 423.61, 863.66 421.15, 863.50 416.06 C 863.34 410.98, 863.43 407.56, 863.62 401.78 C 863.81 395.99, 864.16 392.91, 864.47 387.14 C 864.77 381.36, 864.94 378.34, 865.15 372.89 C 865.35 367.43, 865.42 364.54, 865.50 359.86 C 865.58 355.17, 865.74 352.75, 865.56 349.46 C 865.38 346.17, 865.17 344.60, 864.63 343.39 C 864.08 342.18, 863.34 342.19, 862.82 343.41" style="stroke: black; fill: black;"/><path d="M 904.04,433.10 C 903.31 434.38, 902.89 436.25, 902.17 439.86 C 901.44 443.46, 901.15 445.84, 900.41 451.12 C 899.68 456.40, 899.24 459.87, 898.47 466.26 C 897.71 472.66, 897.29 476.25, 896.58 483.10 C 895.87 489.96, 895.48 493.85, 894.93 500.53 C 894.38 507.21, 894.10 510.87, 893.84 516.52 C 893.58 522.17, 893.22 524.94, 893.63 528.79 C 894.05 532.63, 894.57 534.11, 895.92 535.74 C 897.26 537.37, 898.56 537.81, 900.36 536.92 C 902.16 536.03, 903.20 534.79, 904.91 531.30 C 906.62 527.81, 907.16 524.93, 908.92 519.46 C 910.68 514.00, 911.64 510.36, 913.71 503.96 C 915.79 497.55, 916.98 493.76, 919.28 487.43 C 921.59 481.11, 922.90 477.70, 925.22 472.34 C 927.55 466.99, 928.81 464.47, 930.90 460.65 C 932.98 456.83, 934.09 455.36, 935.66 453.24 C 937.23 451.13, 937.64 450.26, 938.76 450.07 C 939.88 449.89, 940.06 450.45, 941.24 452.32 C 942.43 454.19, 943.19 455.62, 944.68 459.42 C 946.17 463.22, 947.18 466.02, 948.68 471.32 C 950.18 476.62, 950.98 480.16, 952.17 485.93 C 953.37 491.70, 953.76 494.86, 954.65 500.16 C 955.55 505.45, 955.90 508.30, 956.64 512.39 C 957.39 516.49, 957.41 518.38, 958.37 520.63 C 959.33 522.89, 960.03 523.56, 961.46 523.67 C 962.90 523.78, 964.15 523.31, 965.55 521.18 C 966.95 519.05, 967.15 517.20, 968.45 513.01 C 969.74 508.82, 970.38 505.82, 972.03 500.22 C 973.68 494.62, 974.67 491.16, 976.69 485.02 C 978.71 478.88, 979.90 475.24, 982.13 469.51 C 984.35 463.78, 985.66 460.77, 987.80 456.37 C 989.94 451.97, 991.27 449.93, 992.82 447.50 C 994.38 445.07, 994.69 444.24, 995.57 444.21 C 996.46 444.19, 996.44 444.97, 997.26 447.37 C 998.08 449.78, 998.76 451.59, 999.65 456.25 C 1000.54 460.90, 1000.88 464.39, 1001.72 470.67 C 1002.56 476.94, 1003.05 480.95, 1003.85 487.62 C 1004.66 494.29, 1004.89 497.90, 1005.74 504.00 C 1006.59 510.09, 1006.95 513.35, 1008.11 518.10 C 1009.27 522.85, 1010.02 524.95, 1011.54 527.76 C 1013.07 530.57, 1014.11 531.12, 1015.73 532.13 C 1017.36 533.14, 1018.43 533.05, 1019.66 532.81 C 1020.90 532.57, 1021.63 531.56, 1021.91 530.95 C 1022.18 530.33, 1021.56 529.79, 1021.05 529.74 C 1020.54 529.68, 1020.11 530.61, 1019.34 530.68 C 1018.58 530.74, 1018.24 530.92, 1017.24 530.04 C 1016.24 529.15, 1015.69 528.76, 1014.35 526.25 C 1013.00 523.73, 1011.80 521.97, 1010.50 517.46 C 1009.21 512.95, 1008.77 509.71, 1007.87 503.69 C 1006.98 497.67, 1006.74 494.04, 1006.01 487.37 C 1005.28 480.71, 1004.87 476.70, 1004.20 470.37 C 1003.53 464.04, 1003.41 460.61, 1002.65 455.73 C 1001.90 450.85, 1001.85 448.65, 1000.43 445.98 C 999.02 443.31, 997.61 442.43, 995.59 442.38 C 993.57 442.34, 992.35 443.15, 990.34 445.74 C 988.33 448.32, 987.59 450.72, 985.54 455.32 C 983.48 459.91, 982.26 462.92, 980.06 468.72 C 977.86 474.51, 976.66 478.15, 974.53 484.29 C 972.41 490.43, 971.33 493.88, 969.45 499.40 C 967.56 504.93, 966.53 507.88, 965.12 511.91 C 963.70 515.95, 963.07 517.49, 962.35 519.58 C 961.64 521.68, 961.74 522.36, 961.52 522.39 C 961.31 522.42, 961.67 521.84, 961.27 519.73 C 960.86 517.62, 960.34 515.84, 959.51 511.84 C 958.67 507.83, 958.08 505.00, 957.10 499.72 C 956.11 494.44, 955.74 491.27, 954.60 485.44 C 953.46 479.62, 952.76 476.04, 951.41 470.60 C 950.06 465.16, 949.33 462.31, 947.84 458.23 C 946.36 454.15, 945.86 452.28, 943.98 450.20 C 942.11 448.12, 940.66 447.60, 938.49 447.81 C 936.32 448.02, 935.11 448.90, 933.14 451.24 C 931.17 453.57, 930.62 455.43, 928.63 459.48 C 926.65 463.53, 925.49 466.05, 923.23 471.50 C 920.97 476.95, 919.67 480.38, 917.34 486.72 C 915.01 493.07, 913.78 496.87, 911.56 503.24 C 909.35 509.60, 908.22 513.23, 906.26 518.55 C 904.30 523.87, 903.18 526.52, 901.75 529.84 C 900.32 533.16, 899.90 534.20, 899.11 535.15 C 898.31 536.09, 898.31 535.89, 897.77 534.56 C 897.24 533.23, 896.78 532.10, 896.44 528.50 C 896.11 524.91, 896.00 522.15, 896.10 516.59 C 896.19 511.03, 896.43 507.34, 896.93 500.69 C 897.43 494.03, 897.83 490.14, 898.60 483.32 C 899.36 476.49, 899.85 472.91, 900.75 466.56 C 901.65 460.20, 902.21 456.77, 903.10 451.54 C 903.99 446.31, 904.65 444.02, 905.20 440.39 C 905.75 436.77, 906.09 434.89, 905.86 433.43 C 905.62 431.98, 904.78 431.82, 904.04 433.10" style="stroke: black; fill: black;"/><path d="M 1125.14,342.41 C 1125.06 343.59, 1125.30 344.61, 1126.29 347.74 C 1127.29 350.87, 1128.43 352.74, 1130.11 358.07 C 1131.80 363.41, 1132.73 366.84, 1134.70 374.40 C 1136.66 381.96, 1137.82 386.57, 1139.95 395.87 C 1142.07 405.17, 1143.13 410.31, 1145.33 420.90 C 1147.52 431.49, 1148.79 437.53, 1150.91 448.81 C 1153.03 460.09, 1154.00 466.23, 1155.93 477.32 C 1157.86 488.41, 1158.74 494.17, 1160.57 504.26 C 1162.41 514.34, 1163.26 519.41, 1165.10 527.76 C 1166.93 536.11, 1167.87 539.93, 1169.74 546.00 C 1171.61 552.06, 1172.44 554.51, 1174.47 558.07 C 1176.49 561.63, 1177.53 562.77, 1179.86 563.79 C 1182.19 564.82, 1183.80 564.98, 1186.10 563.19 C 1188.41 561.40, 1189.21 559.41, 1191.39 554.86 C 1193.57 550.31, 1194.65 547.36, 1197.00 540.43 C 1199.35 533.51, 1200.66 529.25, 1203.14 520.22 C 1205.63 511.20, 1206.92 505.74, 1209.42 495.31 C 1211.92 484.88, 1213.24 479.09, 1215.64 468.08 C 1218.05 457.07, 1219.21 451.14, 1221.45 440.26 C 1223.69 429.38, 1224.81 423.66, 1226.83 413.66 C 1228.84 403.67, 1229.85 398.56, 1231.52 390.29 C 1233.19 382.02, 1234.10 378.24, 1235.18 372.32 C 1236.27 366.40, 1236.58 364.04, 1236.95 360.71 C 1237.33 357.38, 1237.22 356.70, 1237.05 355.67 C 1236.89 354.64, 1236.55 354.59, 1236.11 355.54 C 1235.67 356.49, 1235.39 357.12, 1234.85 360.42 C 1234.31 363.71, 1234.34 366.09, 1233.39 372.01 C 1232.45 377.93, 1231.67 381.74, 1230.12 390.02 C 1228.56 398.30, 1227.57 403.42, 1225.61 413.42 C 1223.65 423.42, 1222.53 429.14, 1220.30 440.03 C 1218.07 450.91, 1216.91 456.83, 1214.47 467.82 C 1212.04 478.82, 1210.70 484.61, 1208.13 495.00 C 1205.57 505.39, 1204.24 510.84, 1201.63 519.79 C 1199.02 528.74, 1197.60 532.97, 1195.07 539.75 C 1192.54 546.52, 1191.14 549.41, 1188.96 553.66 C 1186.79 557.91, 1185.81 559.36, 1184.18 560.97 C 1182.56 562.59, 1182.37 562.56, 1180.83 561.75 C 1179.29 560.94, 1178.36 560.18, 1176.47 556.92 C 1174.59 553.66, 1173.39 551.35, 1171.39 545.46 C 1169.39 539.57, 1168.38 535.74, 1166.46 527.45 C 1164.54 519.17, 1163.65 514.10, 1161.78 504.03 C 1159.90 493.97, 1159.02 488.21, 1157.07 477.12 C 1155.13 466.03, 1154.17 459.89, 1152.07 448.59 C 1149.97 437.30, 1148.71 431.26, 1146.58 420.65 C 1144.45 410.04, 1143.41 404.89, 1141.41 395.55 C 1139.41 386.21, 1138.33 381.58, 1136.56 373.94 C 1134.79 366.30, 1134.02 362.81, 1132.57 357.36 C 1131.12 351.91, 1130.50 349.79, 1129.32 346.68 C 1128.14 343.58, 1127.53 342.69, 1126.69 341.84 C 1125.85 340.98, 1125.22 341.23, 1125.14 342.41" style="stroke: black; fill: black;"/><path d="M 1253.48,479.39 C 1252.95 480.22, 1252.69 481.12, 1252.52 483.50 C 1252.36 485.88, 1252.58 487.26, 1252.65 491.28 C 1252.71 495.31, 1252.81 498.19, 1252.83 503.61 C 1252.85 509.04, 1252.85 512.27, 1252.74 518.41 C 1252.63 524.55, 1252.38 528.29, 1252.28 534.33 C 1252.18 540.36, 1252.08 543.87, 1252.25 548.60 C 1252.42 553.33, 1252.51 555.84, 1253.12 557.98 C 1253.72 560.11, 1254.77 559.08, 1255.27 559.28 C 1255.77 559.48, 1255.59 559.30, 1255.62 558.97 C 1255.65 558.63, 1255.53 559.68, 1255.41 557.59 C 1255.29 555.49, 1255.19 553.15, 1255.03 548.50 C 1254.88 543.85, 1254.60 540.36, 1254.62 534.35 C 1254.64 528.35, 1254.93 524.61, 1255.14 518.47 C 1255.35 512.34, 1255.44 509.10, 1255.67 503.67 C 1255.89 498.24, 1256.14 495.35, 1256.26 491.31 C 1256.38 487.27, 1256.48 485.85, 1256.27 483.46 C 1256.06 481.07, 1255.75 480.18, 1255.19 479.36 C 1254.63 478.55, 1254.01 478.56, 1253.48 479.39" style="stroke: black; fill: black;"/><path d="M 1261.07,406.51 C 1261.65 405.90, 1261.92 404.97, 1261.83 404.14 C 1261.74 403.30, 1261.16 402.82, 1260.62 402.35 C 1260.08 401.87, 1259.66 401.79, 1259.12 401.75 C 1258.57 401.71, 1258.30 401.80, 1257.87 402.14 C 1257.44 402.48, 1257.15 402.74, 1256.97 403.45 C 1256.78 404.15, 1256.54 404.90, 1256.93 405.65 C 1257.33 406.40, 1258.13 407.02, 1258.96 407.20 C 1259.79 407.37, 1260.50 407.13, 1261.07 406.51" style="stroke: black; fill: black;"/><path d="M 1295.95,469.54 C 1295.34 470.63, 1294.96 471.99, 1294.64 475.11 C 1294.32 478.23, 1294.42 480.40, 1294.36 485.14 C 1294.29 489.89, 1294.17 493.05, 1294.31 498.84 C 1294.45 504.63, 1294.63 507.91, 1295.05 514.09 C 1295.47 520.27, 1295.76 523.70, 1296.41 529.72 C 1297.05 535.74, 1297.46 539.03, 1298.27 544.18 C 1299.08 549.32, 1299.27 552.18, 1300.43 555.45 C 1301.60 558.73, 1302.36 559.79, 1304.10 560.54 C 1305.84 561.29, 1307.21 561.08, 1309.13 559.20 C 1311.06 557.32, 1311.84 555.38, 1313.72 551.14 C 1315.60 546.91, 1316.44 543.78, 1318.53 538.02 C 1320.63 532.26, 1321.74 528.68, 1324.20 522.33 C 1326.66 515.97, 1328.21 512.17, 1330.84 506.25 C 1333.47 500.33, 1334.98 497.07, 1337.37 492.72 C 1339.77 488.37, 1341.17 486.70, 1342.82 484.52 C 1344.46 482.34, 1344.91 481.63, 1345.60 481.83 C 1346.29 482.02, 1345.95 482.79, 1346.28 485.47 C 1346.61 488.15, 1346.95 490.51, 1347.24 495.23 C 1347.54 499.95, 1347.55 503.23, 1347.77 509.09 C 1347.99 514.95, 1347.99 518.52, 1348.34 524.55 C 1348.69 530.57, 1348.79 533.91, 1349.52 539.21 C 1350.25 544.52, 1350.56 547.08, 1352.00 551.05 C 1353.44 555.03, 1354.31 556.99, 1356.73 559.10 C 1359.14 561.20, 1360.98 561.79, 1364.08 561.57 C 1367.17 561.35, 1368.87 560.48, 1372.21 558.00 C 1375.56 555.53, 1377.42 553.71, 1380.82 549.20 C 1384.21 544.69, 1385.99 541.50, 1389.20 535.45 C 1392.40 529.39, 1393.98 525.61, 1396.85 518.94 C 1399.73 512.26, 1401.18 508.64, 1403.57 502.08 C 1405.96 495.52, 1406.97 491.88, 1408.81 486.12 C 1410.64 480.37, 1411.57 477.25, 1412.73 473.31 C 1413.90 469.37, 1414.50 467.62, 1414.65 466.43 C 1414.80 465.24, 1413.85 465.38, 1413.47 467.37 C 1413.10 469.36, 1413.00 471.57, 1412.79 476.39 C 1412.58 481.21, 1412.55 484.86, 1412.42 491.46 C 1412.29 498.06, 1412.19 502.38, 1412.11 509.38 C 1412.04 516.39, 1411.93 520.25, 1412.05 526.50 C 1412.18 532.75, 1412.27 535.80, 1412.75 540.63 C 1413.23 545.46, 1413.32 547.75, 1414.45 550.65 C 1415.59 553.55, 1416.56 554.50, 1418.42 555.13 C 1420.28 555.77, 1421.65 555.75, 1423.76 553.83 C 1425.87 551.91, 1426.60 549.92, 1428.96 545.52 C 1431.31 541.13, 1432.56 538.05, 1435.54 531.84 C 1438.52 525.62, 1440.31 521.56, 1443.85 514.44 C 1447.39 507.33, 1449.55 503.12, 1453.25 496.26 C 1456.94 489.40, 1458.89 485.65, 1462.33 480.14 C 1465.76 474.64, 1467.67 472.00, 1470.43 468.73 C 1473.19 465.46, 1474.43 464.66, 1476.13 463.80 C 1477.83 462.95, 1478.02 463.01, 1478.95 464.46 C 1479.88 465.91, 1480.15 467.28, 1480.79 471.05 C 1481.44 474.82, 1481.86 477.56, 1482.18 483.30 C 1482.49 489.05, 1482.33 492.67, 1482.37 499.78 C 1482.41 506.89, 1482.26 511.15, 1482.39 518.85 C 1482.52 526.55, 1482.39 531.07, 1483.02 538.29 C 1483.65 545.51, 1483.99 549.14, 1485.54 554.93 C 1487.10 560.72, 1487.95 563.52, 1490.77 567.24 C 1493.59 570.96, 1495.62 572.34, 1499.65 573.55 C 1503.69 574.76, 1506.62 574.17, 1510.95 573.30 C 1515.27 572.44, 1517.74 571.08, 1521.29 569.20 C 1524.83 567.33, 1527.40 565.32, 1528.67 563.93 C 1529.94 562.54, 1529.38 561.76, 1527.63 562.26 C 1525.87 562.76, 1523.36 564.81, 1519.90 566.44 C 1516.44 568.08, 1514.23 569.52, 1510.32 570.45 C 1506.41 571.38, 1503.90 572.00, 1500.34 571.09 C 1496.79 570.18, 1495.12 569.22, 1492.55 565.88 C 1489.98 562.55, 1489.01 559.96, 1487.47 554.41 C 1485.93 548.86, 1485.51 545.24, 1484.86 538.13 C 1484.21 531.01, 1484.32 526.49, 1484.24 518.82 C 1484.16 511.16, 1484.34 506.91, 1484.45 499.79 C 1484.56 492.67, 1484.88 489.07, 1484.78 483.21 C 1484.67 477.35, 1484.70 474.55, 1483.92 470.48 C 1483.14 466.41, 1482.62 464.64, 1480.88 462.87 C 1479.14 461.09, 1477.67 460.73, 1475.22 461.60 C 1472.77 462.47, 1471.52 463.70, 1468.61 467.21 C 1465.70 470.71, 1464.06 473.49, 1460.67 479.13 C 1457.29 484.77, 1455.38 488.52, 1451.68 495.42 C 1447.98 502.31, 1445.81 506.51, 1442.17 513.59 C 1438.53 520.67, 1436.66 524.72, 1433.50 530.82 C 1430.34 536.92, 1428.82 539.94, 1426.38 544.08 C 1423.95 548.23, 1422.79 549.68, 1421.33 551.54 C 1419.88 553.40, 1419.88 553.78, 1419.09 553.39 C 1418.30 553.01, 1418.18 552.23, 1417.40 549.62 C 1416.61 547.01, 1415.82 544.98, 1415.18 540.34 C 1414.53 535.71, 1414.35 532.63, 1414.16 526.45 C 1413.98 520.27, 1414.08 516.40, 1414.25 509.42 C 1414.41 502.44, 1414.67 498.13, 1414.99 491.55 C 1415.31 484.97, 1415.66 481.37, 1415.85 476.52 C 1416.05 471.67, 1416.47 469.47, 1415.97 467.29 C 1415.48 465.12, 1414.53 464.63, 1413.36 465.67 C 1412.19 466.71, 1411.44 468.52, 1410.12 472.49 C 1408.81 476.46, 1408.45 479.72, 1406.78 485.51 C 1405.11 491.30, 1404.13 494.91, 1401.79 501.44 C 1399.45 507.97, 1397.98 511.57, 1395.08 518.16 C 1392.18 524.76, 1390.55 528.52, 1387.29 534.41 C 1384.03 540.31, 1382.15 543.40, 1378.78 547.62 C 1375.40 551.84, 1373.41 553.38, 1370.41 555.53 C 1367.42 557.67, 1366.12 558.11, 1363.80 558.35 C 1361.48 558.59, 1360.65 558.38, 1358.81 556.73 C 1356.96 555.08, 1355.95 553.67, 1354.57 550.10 C 1353.19 546.52, 1352.69 544.00, 1351.92 538.87 C 1351.15 533.73, 1351.01 530.39, 1350.71 524.42 C 1350.41 518.45, 1350.48 514.89, 1350.43 509.03 C 1350.37 503.16, 1350.56 499.95, 1350.43 495.09 C 1350.30 490.23, 1350.67 487.69, 1349.78 484.72 C 1348.89 481.75, 1347.83 480.67, 1345.99 480.24 C 1344.14 479.82, 1342.69 480.31, 1340.54 482.57 C 1338.39 484.84, 1337.55 487.02, 1335.22 491.58 C 1332.89 496.15, 1331.50 499.41, 1328.89 505.40 C 1326.28 511.38, 1324.74 515.19, 1322.18 521.53 C 1319.63 527.87, 1318.40 531.44, 1316.13 537.10 C 1313.85 542.76, 1312.68 545.80, 1310.80 549.81 C 1308.92 553.83, 1307.91 555.36, 1306.73 557.20 C 1305.56 559.03, 1305.58 559.54, 1304.91 559.01 C 1304.24 558.47, 1304.21 557.58, 1303.37 554.53 C 1302.54 551.47, 1301.70 548.76, 1300.75 543.75 C 1299.80 538.74, 1299.30 535.43, 1298.61 529.47 C 1297.93 523.51, 1297.65 520.08, 1297.31 513.95 C 1296.97 507.82, 1296.87 504.55, 1296.91 498.81 C 1296.94 493.07, 1297.21 489.95, 1297.47 485.25 C 1297.73 480.55, 1298.16 478.44, 1298.21 475.32 C 1298.26 472.21, 1298.17 470.83, 1297.72 469.67 C 1297.27 468.52, 1296.57 468.45, 1295.95 469.54" style="stroke: black; fill: black;"/></svg>