<svg xmlns="http://www.w3.org/2000/svg" id="canvas" viewBox="294.869 357.752 1142.923 209.045" style="background: white; border-radius: 1rem; overflow: hidden;">
  <style>
    path {
      stroke-dasharray: 2000;
      stroke-dashoffset: 2000;
      -webkit-animation: dash 5s ease infinite;
      animation: dash 5s ease infinite;
    }

    @-webkit-keyframes dash {
      to {
        stroke-dashoffset: 0;
      }
    }

    @keyframes dash {
      to {
        stroke-dashoffset: 0;
      }
    }
  </style>
  <g>
    <path stroke-linecap="null" stroke-linejoin="null" stroke-dasharray="null" stroke-width="5" stroke="#000000"
    fill="none"
    d="M 313.23,361.41 C 312.83 362.02, 312.93 362.59, 312.94 363.89 C 312.94 365.19, 313.00 365.89, 313.26 367.92 C 313.51 369.95, 313.82 371.17, 314.22 374.06 C 314.62 376.94, 315.02 378.59, 315.25 382.35 C 315.48 386.12, 315.45 388.21, 315.37 392.87 C 315.29 397.52, 315.16 400.16, 314.85 405.63 C 314.53 411.11, 314.29 414.11, 313.81 420.24 C 313.33 426.38, 313.01 429.73, 312.43 436.32 C 311.86 442.91, 311.51 446.44, 310.94 453.20 C 310.37 459.96, 310.08 463.50, 309.57 470.12 C 309.07 476.75, 308.80 480.11, 308.42 486.33 C 308.04 492.54, 307.90 495.64, 307.67 501.19 C 307.44 506.75, 307.43 509.47, 307.27 514.09 C 307.10 518.72, 306.95 520.84, 306.85 524.32 C 306.74 527.80, 306.67 529.27, 306.73 531.49 C 306.80 533.71, 306.88 534.33, 307.17 535.42 C 307.46 536.50, 307.83 536.65, 308.18 536.91 C 308.53 537.17, 308.82 536.79, 308.92 536.71 C 309.02 536.62, 308.65 536.48, 308.67 536.47 C 308.70 536.47, 308.81 536.90, 309.02 536.68 C 309.24 536.45, 309.52 536.39, 309.75 535.35 C 309.99 534.31, 310.14 533.68, 310.20 531.48 C 310.25 529.28, 310.11 527.80, 310.03 524.33 C 309.95 520.86, 309.84 518.74, 309.81 514.13 C 309.78 509.51, 309.74 506.80, 309.87 501.26 C 309.99 495.73, 310.09 492.64, 310.42 486.44 C 310.74 480.24, 311.00 476.88, 311.49 470.27 C 311.98 463.65, 312.27 460.12, 312.86 453.36 C 313.45 446.61, 313.81 443.09, 314.44 436.50 C 315.06 429.92, 315.42 426.57, 315.99 420.43 C 316.57 414.29, 316.86 411.30, 317.33 405.81 C 317.79 400.32, 317.99 397.69, 318.31 392.99 C 318.63 388.29, 318.77 386.19, 318.92 382.32 C 319.07 378.44, 319.22 376.65, 319.06 373.60 C 318.90 370.55, 318.61 369.18, 318.12 367.05 C 317.63 364.92, 317.26 364.19, 316.62 362.96 C 315.99 361.73, 315.61 361.20, 314.94 360.89 C 314.26 360.58, 313.63 360.81, 313.23 361.41"
     />
  <path stroke-linecap="null" stroke-linejoin="null" stroke-dasharray="null" stroke-width="5" stroke="#000000"
    fill="none"
    d="M 348.45,386.39 C 348.47 386.75, 348.44 386.30, 348.49 386.75 C 348.54 387.20, 348.41 387.31, 348.71 388.65 C 349.01 389.98, 349.35 390.87, 349.99 393.44 C 350.63 396.01, 351.30 397.64, 351.90 401.48 C 352.50 405.32, 352.73 407.77, 353.00 412.64 C 353.27 417.51, 353.24 420.23, 353.26 425.83 C 353.28 431.43, 353.19 434.54, 353.09 440.66 C 352.99 446.77, 352.90 450.12, 352.77 456.41 C 352.64 462.70, 352.56 466.00, 352.44 472.12 C 352.32 478.24, 352.30 481.35, 352.19 487.01 C 352.08 492.66, 352.05 495.50, 351.88 500.39 C 351.71 505.29, 351.65 507.64, 351.34 511.49 C 351.02 515.33, 350.65 516.99, 350.31 519.63 C 349.98 522.28, 349.95 523.30, 349.67 524.72 C 349.39 526.14, 349.10 526.27, 348.90 526.73 C 348.70 527.20, 348.61 527.12, 348.66 527.05 C 348.70 526.98, 349.20 526.70, 349.15 526.38 C 349.09 526.07, 349.03 525.41, 348.39 525.46 C 347.75 525.51, 346.34 526.05, 345.95 526.63 C 345.57 527.22, 345.96 527.94, 346.48 528.39 C 347.00 528.83, 347.74 528.88, 348.55 528.86 C 349.37 528.83, 349.74 528.89, 350.55 528.25 C 351.37 527.62, 351.93 527.30, 352.62 525.66 C 353.32 524.03, 353.69 522.89, 354.02 520.08 C 354.35 517.28, 354.21 515.56, 354.27 511.63 C 354.33 507.70, 354.32 505.36, 354.34 500.44 C 354.36 495.53, 354.35 492.70, 354.39 487.04 C 354.43 481.38, 354.44 478.27, 354.53 472.16 C 354.63 466.04, 354.72 462.75, 354.87 456.46 C 355.02 450.17, 355.12 446.83, 355.29 440.70 C 355.46 434.58, 355.59 431.48, 355.71 425.85 C 355.84 420.22, 355.93 417.50, 355.92 412.56 C 355.91 407.61, 355.81 405.17, 355.68 401.13 C 355.55 397.08, 355.79 395.21, 355.27 392.32 C 354.75 389.43, 354.09 388.24, 353.09 386.68 C 352.09 385.12, 351.22 384.88, 350.28 384.54 C 349.35 384.19, 348.78 384.58, 348.42 384.95 C 348.05 385.32, 348.44 386.03, 348.45 386.39"
     />
  <path stroke-linecap="null" stroke-linejoin="null" stroke-dasharray="null" stroke-width="5" stroke="#000000"
    fill="none"
    d="M 298.37,476.23 C 298.83 476.63, 299.08 476.68, 300.26 476.77 C 301.44 476.86, 302.15 476.96, 304.27 476.68 C 306.39 476.41, 307.76 476.02, 310.87 475.40 C 313.98 474.79, 315.95 474.33, 319.82 473.60 C 323.68 472.87, 325.91 472.48, 330.20 471.75 C 334.50 471.01, 336.84 470.60, 341.31 469.93 C 345.78 469.25, 348.15 468.93, 352.55 468.38 C 356.96 467.83, 359.21 467.61, 363.32 467.18 C 367.43 466.75, 369.45 466.53, 373.10 466.23 C 376.75 465.92, 378.50 465.91, 381.59 465.66 C 384.69 465.41, 386.33 465.35, 388.57 464.95 C 390.81 464.56, 391.54 464.18, 392.79 463.68 C 394.05 463.18, 394.48 462.93, 394.85 462.47 C 395.22 462.02, 395.13 461.68, 394.63 461.40 C 394.13 461.12, 393.67 461.15, 392.36 461.08 C 391.06 461.01, 390.33 460.89, 388.09 461.04 C 385.86 461.18, 384.26 461.44, 381.19 461.82 C 378.13 462.21, 376.40 462.49, 372.75 462.96 C 369.11 463.44, 367.09 463.68, 362.98 464.19 C 358.87 464.69, 356.61 464.94, 352.19 465.51 C 347.77 466.08, 345.38 466.40, 340.89 467.02 C 336.39 467.64, 334.05 468.03, 329.73 468.61 C 325.40 469.18, 323.20 469.50, 319.28 469.90 C 315.36 470.31, 313.34 470.28, 310.15 470.62 C 306.95 470.96, 305.46 471.09, 303.32 471.62 C 301.17 472.15, 300.50 472.65, 299.43 473.27 C 298.36 473.89, 298.17 474.14, 297.96 474.73 C 297.75 475.32, 297.91 475.82, 298.37 476.23"
     />
  <path stroke-linecap="null" stroke-linejoin="null" stroke-dasharray="null" stroke-width="5" stroke="#000000"
    fill="none"
    d="M 397.04,485.93 C 397.51 486.44, 397.94 486.69, 399.29 486.83 C 400.63 486.97, 401.57 487.09, 403.78 486.61 C 405.99 486.13, 407.48 485.66, 410.33 484.42 C 413.18 483.18, 414.83 482.18, 418.03 480.43 C 421.22 478.67, 423.03 477.63, 426.30 475.64 C 429.57 473.65, 431.32 472.59, 434.36 470.49 C 437.40 468.39, 438.95 467.30, 441.51 465.14 C 444.06 462.98, 445.36 461.90, 447.13 459.67 C 448.89 457.44, 449.60 456.23, 450.35 454.00 C 451.11 451.77, 451.24 450.59, 450.89 448.52 C 450.54 446.46, 450.06 445.35, 448.60 443.69 C 447.15 442.02, 446.08 441.16, 443.61 440.18 C 441.14 439.20, 439.51 438.87, 436.25 438.80 C 432.98 438.72, 431.09 438.98, 427.29 439.82 C 423.48 440.65, 421.36 441.25, 417.22 442.96 C 413.08 444.67, 410.79 445.75, 406.60 448.35 C 402.42 450.95, 400.16 452.55, 396.29 455.94 C 392.42 459.34, 390.42 461.35, 387.24 465.33 C 384.07 469.31, 382.56 471.56, 380.43 475.83 C 378.29 480.10, 377.41 482.41, 376.55 486.69 C 375.69 490.97, 375.57 493.24, 376.12 497.23 C 376.67 501.22, 377.36 503.26, 379.31 506.64 C 381.25 510.02, 382.69 511.64, 385.86 514.15 C 389.04 516.66, 391.05 517.70, 395.20 519.17 C 399.36 520.65, 401.79 521.14, 406.65 521.53 C 411.50 521.92, 414.22 521.80, 419.48 521.12 C 424.74 520.43, 427.57 519.76, 432.93 518.11 C 438.29 516.45, 441.10 515.33, 446.27 512.84 C 451.44 510.35, 454.09 508.84, 458.77 505.67 C 463.45 502.49, 465.74 500.67, 469.67 496.97 C 473.60 493.28, 475.39 491.21, 478.44 487.18 C 481.50 483.16, 482.80 480.99, 484.94 476.84 C 487.08 472.68, 487.86 470.52, 489.15 466.40 C 490.44 462.29, 490.80 460.20, 491.39 456.26 C 491.99 452.32, 492.06 450.34, 492.15 446.70 C 492.23 443.06, 492.09 441.26, 491.80 438.04 C 491.52 434.82, 491.31 433.34, 490.73 430.61 C 490.16 427.88, 489.71 426.61, 488.93 424.39 C 488.16 422.17, 487.72 421.19, 486.85 419.52 C 485.98 417.86, 485.57 417.14, 484.58 416.07 C 483.59 415.00, 483.04 414.54, 481.90 414.18 C 480.77 413.83, 480.04 413.82, 478.89 414.32 C 477.74 414.82, 477.08 415.19, 476.16 416.68 C 475.23 418.18, 474.78 419.25, 474.28 421.80 C 473.78 424.35, 473.88 426.00, 473.66 429.42 C 473.45 432.84, 473.38 434.82, 473.21 438.91 C 473.03 443.00, 472.89 445.36, 472.77 449.89 C 472.65 454.42, 472.61 456.86, 472.59 461.55 C 472.58 466.25, 472.57 468.71, 472.71 473.36 C 472.85 478.01, 472.94 480.43, 473.29 484.78 C 473.63 489.14, 473.87 491.26, 474.43 495.15 C 474.98 499.03, 475.28 500.93, 476.08 504.19 C 476.87 507.46, 477.27 508.97, 478.38 511.47 C 479.49 513.98, 480.18 515.05, 481.61 516.70 C 483.05 518.35, 483.88 519.01, 485.58 519.71 C 487.27 520.42, 488.26 520.56, 490.10 520.22 C 491.95 519.89, 492.97 519.44, 494.79 518.02 C 496.62 516.61, 497.62 515.62, 499.24 513.15 C 500.85 510.68, 501.43 509.01, 502.87 505.67 C 504.31 502.33, 505.03 500.43, 506.44 496.44 C 507.84 492.46, 508.55 490.23, 509.91 485.75 C 511.26 481.27, 511.94 478.82, 513.19 474.03 C 514.44 469.24, 515.07 466.69, 516.15 461.80 C 517.24 456.92, 517.76 454.37, 518.62 449.58 C 519.49 444.80, 519.86 442.36, 520.50 437.87 C 521.13 433.38, 521.39 431.15, 521.79 427.12 C 522.19 423.10, 522.34 421.15, 522.50 417.75 C 522.66 414.35, 522.86 412.77, 522.60 410.13 C 522.34 407.49, 522.02 406.04, 521.20 404.55 C 520.38 403.05, 519.62 402.52, 518.49 402.64 C 517.36 402.76, 516.47 403.27, 515.56 405.13 C 514.66 406.99, 514.35 408.50, 513.95 411.93 C 513.55 415.35, 513.75 417.66, 513.56 422.24 C 513.37 426.81, 513.23 429.54, 513.00 434.79 C 512.78 440.05, 512.59 442.98, 512.44 448.51 C 512.28 454.03, 512.21 456.93, 512.23 462.42 C 512.25 467.90, 512.27 470.74, 512.54 475.95 C 512.81 481.16, 513.02 483.82, 513.58 488.47 C 514.14 493.11, 514.50 495.30, 515.34 499.17 C 516.18 503.04, 516.59 504.82, 517.78 507.80 C 518.96 510.77, 519.69 512.08, 521.26 514.05 C 522.83 516.02, 523.78 516.74, 525.63 517.66 C 527.47 518.58, 528.48 518.81, 530.50 518.67 C 532.52 518.53, 533.68 518.18, 535.73 516.95 C 537.78 515.73, 538.88 514.80, 540.75 512.55 C 542.61 510.29, 543.35 508.74, 545.07 505.69 C 546.79 502.63, 547.65 500.82, 549.33 497.25 C 551.01 493.69, 551.86 491.70, 553.45 487.86 C 555.05 484.01, 555.84 481.95, 557.30 478.05 C 558.76 474.15, 559.42 472.11, 560.75 468.38 C 562.07 464.64, 562.69 462.75, 563.91 459.36 C 565.13 455.97, 565.79 454.32, 566.85 451.43 C 567.91 448.54, 568.37 447.19, 569.22 444.92 C 570.08 442.66, 570.44 441.68, 571.14 440.09 C 571.84 438.50, 572.21 437.95, 572.71 436.98 C 573.21 436.01, 573.36 435.77, 573.63 435.25 C 573.90 434.74, 573.93 434.70, 574.05 434.40 C 574.18 434.10, 574.30 434.08, 574.24 433.75 C 574.19 433.43, 574.06 432.99, 573.78 432.78 C 573.49 432.56, 573.27 432.56, 572.80 432.69 C 572.34 432.82, 572.04 432.93, 571.46 433.43 C 570.87 433.93, 570.62 434.20, 569.88 435.20 C 569.14 436.20, 568.64 436.77, 567.75 438.43 C 566.86 440.09, 566.35 441.13, 565.44 443.48 C 564.54 445.83, 564.17 447.22, 563.21 450.18 C 562.26 453.13, 561.78 454.83, 560.68 458.26 C 559.58 461.69, 558.99 463.60, 557.73 467.33 C 556.46 471.07, 555.81 473.09, 554.36 476.94 C 552.90 480.79, 552.10 482.83, 550.46 486.58 C 548.81 490.32, 547.91 492.27, 546.13 495.67 C 544.35 499.06, 543.37 500.78, 541.55 503.54 C 539.72 506.30, 538.67 507.47, 537.02 509.45 C 535.37 511.43, 534.69 512.29, 533.30 513.44 C 531.91 514.59, 531.30 514.96, 530.07 515.22 C 528.85 515.48, 528.36 515.41, 527.18 514.73 C 525.99 514.05, 525.37 513.49, 524.16 511.83 C 522.94 510.16, 522.27 509.08, 521.09 506.41 C 519.91 503.74, 519.24 502.12, 518.26 498.46 C 517.28 494.81, 516.85 492.65, 516.19 488.12 C 515.53 483.59, 515.29 480.95, 514.97 475.81 C 514.65 470.67, 514.61 467.85, 514.59 462.41 C 514.57 456.96, 514.65 454.08, 514.88 448.59 C 515.11 443.10, 515.32 440.18, 515.74 434.96 C 516.15 429.75, 516.41 427.00, 516.95 422.51 C 517.50 418.02, 518.00 415.79, 518.47 412.51 C 518.93 409.23, 519.21 407.90, 519.28 406.13 C 519.35 404.37, 519.01 403.85, 518.81 403.69 C 518.60 403.53, 518.32 403.98, 518.26 405.33 C 518.20 406.69, 518.37 407.98, 518.52 410.45 C 518.67 412.93, 518.96 414.41, 519.01 417.70 C 519.06 420.98, 519.02 422.91, 518.78 426.88 C 518.53 430.84, 518.32 433.06, 517.77 437.51 C 517.22 441.96, 516.88 444.38, 516.05 449.12 C 515.22 453.87, 514.71 456.39, 513.62 461.24 C 512.52 466.08, 511.89 468.61, 510.59 473.33 C 509.29 478.06, 508.57 480.48, 507.12 484.87 C 505.67 489.25, 504.90 491.44, 503.33 495.26 C 501.76 499.07, 500.92 500.90, 499.28 503.93 C 497.64 506.96, 496.60 508.23, 495.12 510.40 C 493.64 512.57, 493.05 513.49, 491.87 514.79 C 490.70 516.08, 490.24 516.48, 489.24 516.87 C 488.25 517.25, 487.87 517.22, 486.91 516.73 C 485.96 516.25, 485.44 515.80, 484.45 514.42 C 483.47 513.05, 482.98 512.11, 481.99 509.88 C 481.01 507.65, 480.42 506.32, 479.53 503.27 C 478.63 500.23, 478.19 498.39, 477.52 494.65 C 476.85 490.90, 476.57 488.81, 476.16 484.53 C 475.76 480.26, 475.65 477.87, 475.50 473.27 C 475.35 468.68, 475.36 466.23, 475.43 461.58 C 475.49 456.93, 475.56 454.50, 475.82 450.02 C 476.07 445.54, 476.26 443.20, 476.71 439.18 C 477.16 435.16, 477.50 433.21, 478.06 429.93 C 478.62 426.65, 479.09 425.11, 479.51 422.78 C 479.92 420.45, 479.97 419.51, 480.14 418.27 C 480.31 417.03, 480.24 416.90, 480.35 416.59 C 480.45 416.28, 480.39 416.39, 480.67 416.73 C 480.94 417.07, 481.19 417.37, 481.72 418.27 C 482.25 419.17, 482.65 419.76, 483.32 421.25 C 483.99 422.74, 484.40 423.65, 485.07 425.70 C 485.75 427.76, 486.09 428.96, 486.69 431.51 C 487.29 434.06, 487.65 435.42, 488.07 438.46 C 488.49 441.50, 488.72 443.21, 488.77 446.69 C 488.83 450.16, 488.83 452.06, 488.36 455.84 C 487.90 459.62, 487.61 461.62, 486.46 465.59 C 485.31 469.55, 484.61 471.63, 482.61 475.66 C 480.62 479.69, 479.40 481.80, 476.49 485.72 C 473.58 489.65, 471.87 491.67, 468.07 495.28 C 464.27 498.90, 462.05 500.69, 457.50 503.79 C 452.94 506.89, 450.33 508.37, 445.28 510.78 C 440.23 513.19, 437.46 514.28, 432.24 515.84 C 427.02 517.41, 424.24 518.02, 419.17 518.61 C 414.10 519.20, 411.48 519.24, 406.89 518.80 C 402.29 518.35, 400.03 517.80, 396.21 516.39 C 392.39 514.97, 390.63 513.98, 387.79 511.71 C 384.95 509.45, 383.74 508.06, 382.00 505.08 C 380.26 502.09, 379.62 500.38, 379.08 496.81 C 378.54 493.23, 378.56 491.18, 379.30 487.22 C 380.05 483.26, 380.81 481.07, 382.80 477.01 C 384.79 472.95, 386.22 470.76, 389.26 466.94 C 392.30 463.12, 394.25 461.16, 398.01 457.92 C 401.77 454.68, 403.99 453.15, 408.05 450.74 C 412.12 448.33, 414.38 447.34, 418.36 445.88 C 422.34 444.42, 424.42 443.96, 427.96 443.43 C 431.50 442.91, 433.23 443.06, 436.05 443.25 C 438.88 443.44, 440.13 443.77, 442.09 444.39 C 444.06 445.01, 444.80 445.39, 445.89 446.33 C 446.97 447.27, 447.30 447.82, 447.50 449.09 C 447.71 450.36, 447.62 451.08, 446.91 452.68 C 446.19 454.28, 445.51 455.17, 443.93 457.09 C 442.35 459.00, 441.33 460.18, 439.00 462.27 C 436.68 464.36, 435.23 465.50, 432.31 467.55 C 429.40 469.59, 427.66 470.65, 424.44 472.49 C 421.22 474.34, 419.39 475.33, 416.20 476.77 C 413.00 478.21, 411.23 478.72, 408.46 479.69 C 405.70 480.66, 404.32 480.93, 402.37 481.63 C 400.41 482.32, 399.77 482.64, 398.69 483.17 C 397.60 483.71, 397.28 483.75, 396.95 484.30 C 396.62 484.85, 396.57 485.42, 397.04 485.93"
     />
  <path stroke-linecap="null" stroke-linejoin="null" stroke-dasharray="null" stroke-width="5" stroke="#000000"
    fill="none"
    d="M 621.86,451.38 C 622.32 450.70, 622.35 449.82, 622.23 448.49 C 622.10 447.17, 621.94 446.30, 621.24 444.76 C 620.54 443.23, 619.98 442.21, 618.71 440.82 C 617.44 439.44, 616.64 438.85, 614.89 437.85 C 613.14 436.85, 612.20 436.40, 609.96 435.82 C 607.71 435.24, 606.42 434.93, 603.67 434.95 C 600.92 434.98, 599.33 435.18, 596.23 435.97 C 593.12 436.76, 591.44 437.36, 588.15 438.89 C 584.87 440.42, 583.11 441.36, 579.79 443.61 C 576.47 445.86, 574.69 447.22, 571.55 450.14 C 568.40 453.06, 566.75 454.76, 564.08 458.23 C 561.41 461.70, 560.09 463.68, 558.17 467.47 C 556.25 471.26, 555.40 473.33, 554.48 477.19 C 553.55 481.05, 553.28 483.09, 553.54 486.76 C 553.80 490.44, 554.25 492.41, 555.80 495.57 C 557.34 498.73, 558.51 500.27, 561.25 502.55 C 563.98 504.83, 565.78 505.75, 569.47 506.99 C 573.16 508.23, 575.41 508.58, 579.71 508.74 C 584.01 508.91, 586.44 508.64, 590.98 507.82 C 595.52 507.00, 597.99 506.28, 602.40 504.64 C 606.81 503.00, 609.12 501.93, 613.03 499.62 C 616.93 497.32, 618.83 495.95, 621.93 493.12 C 625.03 490.29, 626.44 488.68, 628.52 485.47 C 630.61 482.26, 631.43 480.47, 632.36 477.07 C 633.30 473.67, 633.41 471.83, 633.20 468.47 C 633.00 465.10, 632.50 463.35, 631.34 460.25 C 630.18 457.15, 629.20 455.65, 627.41 452.98 C 625.62 450.32, 624.45 449.04, 622.40 446.93 C 620.36 444.83, 619.11 443.91, 617.20 442.45 C 615.29 441.00, 614.32 440.40, 612.86 439.66 C 611.40 438.91, 610.78 438.89, 609.90 438.74 C 609.03 438.58, 608.83 438.71, 608.48 438.90 C 608.12 439.08, 608.08 439.30, 608.14 439.67 C 608.21 440.04, 608.28 440.11, 608.80 440.73 C 609.31 441.35, 609.60 441.77, 610.73 442.79 C 611.87 443.81, 612.78 444.37, 614.47 445.83 C 616.16 447.29, 617.29 448.18, 619.21 450.09 C 621.12 451.99, 622.33 453.03, 624.03 455.35 C 625.73 457.67, 626.61 458.99, 627.70 461.67 C 628.80 464.35, 629.25 465.84, 629.51 468.74 C 629.77 471.64, 629.75 473.19, 629.01 476.19 C 628.27 479.20, 627.64 480.81, 625.82 483.75 C 623.99 486.70, 622.75 488.24, 619.90 490.92 C 617.05 493.61, 615.26 494.95, 611.56 497.16 C 607.87 499.37, 605.63 500.42, 601.41 501.97 C 597.19 503.52, 594.78 504.18, 590.47 504.90 C 586.16 505.63, 583.84 505.81, 579.86 505.58 C 575.88 505.36, 573.84 504.94, 570.57 503.79 C 567.30 502.64, 565.83 501.80, 563.51 499.85 C 561.18 497.90, 560.27 496.69, 558.95 494.02 C 557.63 491.35, 557.17 489.72, 556.89 486.50 C 556.62 483.28, 556.77 481.45, 557.58 477.92 C 558.38 474.39, 559.13 472.41, 560.92 468.85 C 562.70 465.29, 563.94 463.38, 566.50 460.11 C 569.05 456.83, 570.66 455.21, 573.69 452.48 C 576.72 449.76, 578.47 448.49, 581.67 446.48 C 584.86 444.47, 586.57 443.66, 589.68 442.43 C 592.79 441.19, 594.40 440.86, 597.21 440.32 C 600.01 439.78, 601.38 439.74, 603.72 439.72 C 606.06 439.70, 607.12 439.84, 608.92 440.22 C 610.72 440.60, 611.48 440.88, 612.71 441.62 C 613.95 442.35, 614.31 442.81, 615.11 443.87 C 615.91 444.94, 616.11 445.75, 616.73 446.94 C 617.34 448.13, 617.53 448.84, 618.18 449.84 C 618.82 450.83, 619.21 451.62, 619.95 451.93 C 620.69 452.23, 621.41 452.07, 621.86 451.38"
     />
  <path stroke-linecap="null" stroke-linejoin="null" stroke-dasharray="null" stroke-width="5" stroke="#000000"
    fill="none"
    d="M 675.40,493.03 C 674.96 493.42, 674.89 493.62, 674.68 494.66 C 674.47 495.71, 674.42 496.35, 674.34 498.23 C 674.27 500.11, 674.37 501.31, 674.31 504.08 C 674.25 506.84, 674.42 508.58, 674.03 512.05 C 673.64 515.53, 673.22 517.53, 672.35 521.44 C 671.48 525.35, 670.82 527.53, 669.68 531.59 C 668.54 535.65, 667.82 537.85, 666.64 541.76 C 665.46 545.66, 664.65 547.76, 663.79 551.10 C 662.92 554.44, 662.59 556.08, 662.32 558.46 C 662.05 560.84, 662.16 562.06, 662.46 563.02 C 662.76 563.98, 663.19 564.04, 663.81 563.26 C 664.42 562.49, 664.83 561.38, 665.53 559.13 C 666.23 556.88, 666.48 555.31, 667.33 552.02 C 668.17 548.72, 668.68 546.57, 669.77 542.66 C 670.85 538.75, 671.57 536.55, 672.76 532.47 C 673.94 528.39, 674.65 526.21, 675.71 522.26 C 676.77 518.31, 677.26 516.30, 678.05 512.73 C 678.83 509.15, 679.33 507.36, 679.63 504.41 C 679.92 501.46, 679.79 500.03, 679.52 497.97 C 679.25 495.92, 678.80 495.18, 678.27 494.12 C 677.75 493.07, 677.46 492.92, 676.89 492.70 C 676.31 492.48, 675.84 492.63, 675.40 493.03"
     />
  <path stroke-linecap="null" stroke-linejoin="null" stroke-dasharray="null" stroke-width="5" stroke="#000000"
    fill="none"
    d="M 791.07,385.30 C 790.86 385.63, 790.88 385.33, 790.75 385.88 C 790.63 386.43, 790.42 386.60, 790.44 388.03 C 790.47 389.46, 790.60 390.41, 790.89 393.03 C 791.18 395.66, 791.65 397.37, 791.89 401.15 C 792.13 404.93, 792.13 407.24, 792.06 411.93 C 792.00 416.63, 791.84 419.24, 791.55 424.62 C 791.25 430.00, 790.98 432.99, 790.58 438.82 C 790.17 444.65, 789.94 447.80, 789.52 453.76 C 789.11 459.71, 788.89 462.81, 788.50 468.60 C 788.12 474.39, 787.93 477.37, 787.61 482.72 C 787.29 488.06, 787.16 490.71, 786.90 495.31 C 786.63 499.91, 786.48 502.08, 786.30 505.73 C 786.13 509.37, 785.95 510.99, 786.03 513.53 C 786.11 516.07, 786.34 517.00, 786.70 518.43 C 787.06 519.86, 787.43 520.17, 787.85 520.69 C 788.28 521.21, 788.55 521.03, 788.82 521.03 C 789.08 521.03, 789.06 520.84, 789.17 520.69 C 789.28 520.53, 789.24 520.75, 789.36 520.23 C 789.47 519.72, 789.65 519.48, 789.73 518.12 C 789.80 516.76, 789.79 515.89, 789.73 513.43 C 789.67 510.96, 789.49 509.38, 789.45 505.78 C 789.40 502.18, 789.41 500.00, 789.51 495.41 C 789.61 490.82, 789.70 488.17, 789.94 482.84 C 790.18 477.50, 790.35 474.53, 790.70 468.74 C 791.06 462.96, 791.28 459.86, 791.72 453.91 C 792.15 447.97, 792.40 444.82, 792.88 438.99 C 793.35 433.17, 793.65 430.18, 794.09 424.80 C 794.54 419.41, 794.75 416.79, 795.09 412.07 C 795.44 407.34, 795.57 405.05, 795.82 401.16 C 796.07 397.27, 796.47 395.44, 796.35 392.63 C 796.24 389.81, 795.83 388.68, 795.24 387.06 C 794.66 385.45, 794.10 385.11, 793.41 384.55 C 792.72 383.98, 792.29 384.09, 791.82 384.24 C 791.35 384.39, 791.29 384.97, 791.07 385.30"
     />
  <path stroke-linecap="null" stroke-linejoin="null" stroke-dasharray="null" stroke-width="5" stroke="#000000"
    fill="none"
    d="M 846.03,379.44 C 845.41 379.81, 845.10 380.33, 844.76 381.42 C 844.42 382.50, 844.36 383.31, 844.33 384.87 C 844.31 386.44, 844.44 387.43, 844.64 389.26 C 844.85 391.09, 845.11 392.12, 845.35 394.02 C 845.60 395.93, 845.73 396.88, 845.86 398.79 C 845.99 400.71, 845.99 401.66, 846.01 403.60 C 846.03 405.53, 845.94 406.53, 845.94 408.46 C 845.95 410.40, 845.81 411.53, 846.03 413.27 C 846.25 415.00, 846.55 415.90, 847.05 417.13 C 847.56 418.37, 847.95 419.04, 848.54 419.44 C 849.14 419.84, 849.64 419.71, 850.04 419.14 C 850.44 418.56, 850.44 417.80, 850.54 416.57 C 850.64 415.34, 850.55 414.59, 850.55 412.97 C 850.56 411.35, 850.55 410.33, 850.55 408.45 C 850.54 406.57, 850.55 405.53, 850.52 403.55 C 850.50 401.58, 850.50 400.55, 850.44 398.56 C 850.37 396.57, 850.30 395.55, 850.20 393.59 C 850.10 391.63, 850.05 390.58, 849.92 388.77 C 849.79 386.96, 849.77 386.00, 849.55 384.53 C 849.33 383.06, 849.16 382.39, 848.81 381.40 C 848.46 380.41, 848.37 379.96, 847.81 379.57 C 847.26 379.18, 846.64 379.07, 846.03 379.44"
     />
  <path stroke-linecap="null" stroke-linejoin="null" stroke-dasharray="null" stroke-width="5" stroke="#000000"
    fill="none"
    d="M 887.37,448.76 C 886.94 449.24, 886.88 449.62, 886.79 450.78 C 886.71 451.95, 886.74 452.65, 886.96 454.57 C 887.18 456.48, 887.41 457.72, 887.89 460.37 C 888.38 463.01, 888.90 464.51, 889.39 467.81 C 889.88 471.11, 890.08 473.03, 890.34 476.87 C 890.59 480.70, 890.62 482.85, 890.66 486.99 C 890.70 491.13, 890.60 493.48, 890.55 497.57 C 890.49 501.65, 890.41 503.86, 890.39 507.42 C 890.37 510.99, 890.15 512.79, 890.45 515.40 C 890.76 518.00, 891.09 519.21, 891.92 520.45 C 892.74 521.68, 893.48 521.98, 894.57 521.58 C 895.67 521.18, 896.50 520.49, 897.39 518.45 C 898.28 516.41, 898.41 514.75, 899.04 511.38 C 899.67 508.02, 899.75 505.72, 900.52 501.62 C 901.28 497.53, 901.76 495.21, 902.88 490.92 C 904.01 486.64, 904.67 484.33, 906.13 480.19 C 907.58 476.06, 908.38 473.94, 910.14 470.26 C 911.89 466.57, 912.91 464.81, 914.91 461.77 C 916.91 458.72, 918.03 457.28, 920.14 455.02 C 922.24 452.76, 923.41 451.84, 925.44 450.47 C 927.47 449.09, 928.45 448.59, 930.27 448.14 C 932.10 447.68, 932.95 447.67, 934.57 448.20 C 936.19 448.73, 936.90 449.26, 938.36 450.78 C 939.83 452.31, 940.55 453.36, 941.91 455.82 C 943.28 458.27, 944.05 459.79, 945.19 463.05 C 946.34 466.32, 946.87 468.31, 947.62 472.14 C 948.38 475.97, 948.63 478.19, 948.98 482.21 C 949.32 486.22, 949.33 488.44, 949.33 492.24 C 949.33 496.03, 949.09 498.05, 949.00 501.17 C 948.90 504.28, 948.66 505.76, 948.87 507.80 C 949.08 509.83, 949.34 510.66, 950.05 511.35 C 950.77 512.04, 951.45 512.07, 952.43 511.24 C 953.41 510.41, 954.10 509.49, 954.95 507.19 C 955.79 504.88, 955.82 503.10, 956.64 499.71 C 957.47 496.32, 957.85 494.15, 959.07 490.24 C 960.28 486.33, 961.06 484.10, 962.72 480.15 C 964.38 476.21, 965.36 474.13, 967.38 470.51 C 969.41 466.89, 970.56 465.07, 972.85 462.05 C 975.13 459.02, 976.41 457.60, 978.82 455.39 C 981.23 453.17, 982.56 452.30, 984.89 450.99 C 987.22 449.69, 988.35 449.21, 990.47 448.86 C 992.59 448.51, 993.61 448.60, 995.50 449.25 C 997.38 449.90, 998.23 450.50, 999.91 452.10 C 1001.59 453.70, 1002.43 454.70, 1003.89 457.24 C 1005.36 459.79, 1006.14 461.38, 1007.24 464.81 C 1008.33 468.25, 1008.73 470.34, 1009.35 474.42 C 1009.98 478.50, 1010.12 480.88, 1010.34 485.21 C 1010.56 489.54, 1010.47 491.91, 1010.45 496.10 C 1010.42 500.28, 1010.26 502.44, 1010.21 506.14 C 1010.17 509.84, 1009.94 511.63, 1010.22 514.60 C 1010.49 517.57, 1010.78 518.96, 1011.57 520.99 C 1012.36 523.02, 1013.05 523.78, 1014.17 524.75 C 1015.30 525.73, 1016.18 525.82, 1017.18 525.87 C 1018.19 525.91, 1018.87 525.43, 1019.20 524.96 C 1019.54 524.49, 1019.19 523.83, 1018.85 523.53 C 1018.51 523.23, 1018.02 523.61, 1017.51 523.44 C 1016.99 523.28, 1016.79 523.42, 1016.28 522.71 C 1015.77 522.00, 1015.39 521.59, 1014.97 519.89 C 1014.55 518.19, 1014.45 516.98, 1014.18 514.22 C 1013.90 511.47, 1013.70 509.73, 1013.58 506.10 C 1013.45 502.48, 1013.58 500.30, 1013.55 496.09 C 1013.51 491.89, 1013.60 489.49, 1013.41 485.07 C 1013.22 480.64, 1013.12 478.23, 1012.58 473.97 C 1012.04 469.72, 1011.73 467.53, 1010.71 463.79 C 1009.69 460.04, 1009.07 458.20, 1007.48 455.25 C 1005.89 452.29, 1004.92 450.94, 1002.75 449.00 C 1000.59 447.07, 999.25 446.36, 996.67 445.57 C 994.10 444.79, 992.62 444.68, 989.88 445.08 C 987.14 445.49, 985.65 446.05, 982.96 447.61 C 980.27 449.16, 978.96 450.37, 976.42 452.88 C 973.89 455.39, 972.64 456.93, 970.29 460.16 C 967.95 463.39, 966.80 465.27, 964.71 469.02 C 962.62 472.77, 961.64 474.89, 959.83 478.90 C 958.03 482.90, 957.23 485.15, 955.70 489.05 C 954.17 492.95, 953.34 495.04, 952.18 498.40 C 951.03 501.76, 950.33 503.45, 949.92 505.85 C 949.51 508.26, 949.84 509.37, 950.14 510.42 C 950.44 511.46, 950.94 511.61, 951.43 511.10 C 951.93 510.59, 952.31 509.85, 952.61 507.88 C 952.92 505.91, 952.92 504.38, 952.95 501.24 C 952.97 498.10, 952.88 496.03, 952.74 492.17 C 952.60 488.31, 952.60 486.06, 952.25 481.93 C 951.91 477.80, 951.70 475.53, 951.02 471.52 C 950.34 467.51, 949.90 465.44, 948.85 461.88 C 947.80 458.32, 947.28 456.54, 945.77 453.72 C 944.25 450.89, 943.31 449.55, 941.28 447.73 C 939.25 445.92, 937.98 445.28, 935.62 444.63 C 933.26 443.99, 931.95 444.00, 929.46 444.51 C 926.98 445.02, 925.62 445.55, 923.21 447.17 C 920.81 448.79, 919.64 450.03, 917.44 452.61 C 915.23 455.18, 914.19 456.77, 912.19 460.04 C 910.18 463.31, 909.18 465.15, 907.42 468.98 C 905.65 472.81, 904.86 474.99, 903.35 479.21 C 901.85 483.43, 901.17 485.77, 899.89 490.09 C 898.61 494.41, 898.06 496.75, 896.96 500.81 C 895.86 504.88, 895.15 507.11, 894.39 510.41 C 893.62 513.72, 893.30 515.31, 893.14 517.35 C 892.97 519.39, 893.33 520.12, 893.57 520.61 C 893.80 521.10, 894.10 520.91, 894.30 519.81 C 894.50 518.71, 894.63 517.59, 894.56 515.10 C 894.50 512.61, 894.14 510.86, 893.99 507.36 C 893.84 503.85, 893.83 501.66, 893.82 497.58 C 893.81 493.51, 893.93 491.15, 893.95 486.98 C 893.96 482.81, 893.98 480.63, 893.91 476.72 C 893.84 472.80, 893.74 470.84, 893.60 467.42 C 893.45 463.99, 893.50 462.36, 893.18 459.59 C 892.87 456.81, 892.58 455.49, 892.02 453.56 C 891.47 451.62, 891.04 450.95, 890.43 449.91 C 889.82 448.87, 889.57 448.59, 888.96 448.36 C 888.35 448.13, 887.80 448.28, 887.37 448.76"
     />
  <path stroke-linecap="null" stroke-linejoin="null" stroke-dasharray="null" stroke-width="5" stroke="#000000"
    fill="none"
    d="M 1127.87,397.70 C 1127.74 398.20, 1127.85 398.13, 1128.10 399.00 C 1128.35 399.86, 1128.42 400.30, 1129.11 402.03 C 1129.80 403.76, 1130.46 404.77, 1131.55 407.63 C 1132.64 410.50, 1133.44 412.32, 1134.54 416.36 C 1135.64 420.39, 1136.12 422.80, 1137.05 427.81 C 1137.98 432.82, 1138.37 435.65, 1139.19 441.40 C 1140.01 447.15, 1140.38 450.33, 1141.16 456.57 C 1141.95 462.81, 1142.28 466.21, 1143.11 472.59 C 1143.94 478.96, 1144.33 482.35, 1145.31 488.43 C 1146.29 494.51, 1146.87 497.60, 1148.01 502.97 C 1149.16 508.34, 1149.79 510.93, 1151.05 515.29 C 1152.30 519.65, 1152.85 521.66, 1154.27 524.79 C 1155.69 527.92, 1156.45 529.29, 1158.15 530.95 C 1159.85 532.61, 1160.92 533.09, 1162.77 533.10 C 1164.63 533.11, 1165.77 532.71, 1167.42 531.00 C 1169.07 529.29, 1169.68 527.94, 1171.02 524.56 C 1172.35 521.18, 1172.79 518.95, 1174.10 514.11 C 1175.41 509.27, 1176.09 506.33, 1177.56 500.36 C 1179.03 494.38, 1179.80 490.98, 1181.46 484.24 C 1183.12 477.50, 1184.08 473.79, 1185.86 466.66 C 1187.64 459.54, 1188.57 455.76, 1190.36 448.63 C 1192.14 441.51, 1193.04 437.84, 1194.77 431.03 C 1196.49 424.22, 1197.40 420.81, 1198.97 414.60 C 1200.54 408.39, 1201.32 405.34, 1202.63 399.97 C 1203.94 394.60, 1204.52 392.02, 1205.52 387.73 C 1206.52 383.45, 1207.15 381.57, 1207.64 378.54 C 1208.14 375.51, 1208.03 374.37, 1208.00 372.59 C 1207.97 370.81, 1207.80 370.24, 1207.49 369.63 C 1207.17 369.02, 1206.83 369.01, 1206.43 369.55 C 1206.03 370.08, 1205.91 370.62, 1205.48 372.30 C 1205.05 373.99, 1204.78 375.00, 1204.28 377.98 C 1203.77 380.96, 1203.71 382.91, 1202.96 387.21 C 1202.21 391.51, 1201.69 394.10, 1200.52 399.48 C 1199.34 404.87, 1198.60 407.91, 1197.10 414.14 C 1195.60 420.36, 1194.72 423.78, 1193.02 430.59 C 1191.33 437.40, 1190.43 441.08, 1188.64 448.21 C 1186.85 455.33, 1185.91 459.11, 1184.09 466.22 C 1182.27 473.32, 1181.29 477.04, 1179.53 483.75 C 1177.77 490.46, 1176.95 493.86, 1175.29 499.76 C 1173.63 505.66, 1172.82 508.58, 1171.23 513.24 C 1169.65 517.90, 1168.69 519.95, 1167.36 523.06 C 1166.04 526.17, 1165.53 527.25, 1164.61 528.78 C 1163.70 530.31, 1163.60 530.71, 1162.77 530.72 C 1161.95 530.73, 1161.61 530.30, 1160.50 528.83 C 1159.39 527.37, 1158.61 526.27, 1157.22 523.41 C 1155.82 520.54, 1154.93 518.70, 1153.53 514.52 C 1152.13 510.33, 1151.44 507.76, 1150.21 502.48 C 1148.98 497.19, 1148.39 494.12, 1147.38 488.09 C 1146.36 482.06, 1145.97 478.68, 1145.15 472.32 C 1144.33 465.97, 1144.01 462.56, 1143.29 456.31 C 1142.56 450.07, 1142.22 446.88, 1141.52 441.09 C 1140.81 435.31, 1140.48 432.47, 1139.76 427.37 C 1139.04 422.27, 1138.65 419.85, 1137.92 415.61 C 1137.19 411.37, 1136.96 409.32, 1136.10 406.16 C 1135.24 403.01, 1134.68 401.68, 1133.61 399.82 C 1132.54 397.97, 1131.73 397.53, 1130.76 396.87 C 1129.78 396.21, 1129.31 396.35, 1128.73 396.52 C 1128.16 396.69, 1127.99 397.21, 1127.87 397.70"
     />
  <path stroke-linecap="null" stroke-linejoin="null" stroke-dasharray="null" stroke-width="5" stroke="#000000"
    fill="none"
    d="M 1219.30,463.26 C 1218.84 463.96, 1218.89 464.72, 1218.75 466.48 C 1218.61 468.24, 1218.46 469.28, 1218.61 472.06 C 1218.75 474.83, 1219.22 476.73, 1219.48 480.36 C 1219.74 484.00, 1219.86 486.12, 1219.92 490.22 C 1219.97 494.33, 1219.86 496.63, 1219.75 500.88 C 1219.64 505.13, 1219.49 507.44, 1219.37 511.47 C 1219.24 515.50, 1219.14 517.59, 1219.14 521.04 C 1219.14 524.49, 1218.90 526.20, 1219.36 528.72 C 1219.82 531.24, 1220.55 532.66, 1221.44 533.64 C 1222.34 534.61, 1223.36 533.75, 1223.85 533.59 C 1224.34 533.44, 1224.00 533.04, 1223.88 532.86 C 1223.76 532.68, 1223.36 533.60, 1223.26 532.68 C 1223.15 531.76, 1223.46 530.60, 1223.36 528.26 C 1223.26 525.92, 1222.92 524.31, 1222.77 520.96 C 1222.62 517.62, 1222.57 515.53, 1222.60 511.53 C 1222.64 507.54, 1222.78 505.23, 1222.93 500.98 C 1223.08 496.72, 1223.23 494.40, 1223.37 490.26 C 1223.50 486.11, 1223.53 483.96, 1223.60 480.26 C 1223.67 476.55, 1223.94 474.58, 1223.74 471.74 C 1223.53 468.90, 1223.12 467.80, 1222.58 466.04 C 1222.05 464.29, 1221.70 463.54, 1221.05 462.98 C 1220.39 462.42, 1219.76 462.56, 1219.30 463.26"
     />
  <path stroke-linecap="null" stroke-linejoin="null" stroke-dasharray="null" stroke-width="5" stroke="#000000"
    fill="none"
    d="M 1227.30,418.61 C 1227.84 418.11, 1227.96 417.42, 1227.77 416.90 C 1227.58 416.38, 1227.02 416.08, 1226.35 415.99 C 1225.67 415.91, 1224.95 416.04, 1224.40 416.47 C 1223.85 416.90, 1223.47 417.56, 1223.61 418.14 C 1223.75 418.72, 1224.35 419.27, 1225.08 419.36 C 1225.82 419.46, 1226.76 419.10, 1227.30 418.61"
     />
  <path stroke-linecap="null" stroke-linejoin="null" stroke-dasharray="null" stroke-width="5" stroke="#000000"
    fill="none"
    d="M 1263.61,462.42 C 1263.28 462.95, 1263.40 463.24, 1263.45 464.33 C 1263.51 465.42, 1263.55 466.00, 1263.88 467.88 C 1264.21 469.76, 1264.53 470.98, 1265.10 473.72 C 1265.67 476.46, 1266.25 478.07, 1266.72 481.56 C 1267.20 485.06, 1267.27 487.14, 1267.45 491.22 C 1267.63 495.29, 1267.65 497.61, 1267.62 501.93 C 1267.60 506.25, 1267.48 508.64, 1267.32 512.82 C 1267.17 517.01, 1266.95 519.29, 1266.84 522.86 C 1266.74 526.43, 1266.49 528.23, 1266.80 530.68 C 1267.10 533.13, 1267.54 534.16, 1268.38 535.12 C 1269.22 536.08, 1269.94 536.23, 1271.02 535.48 C 1272.09 534.72, 1272.94 533.82, 1273.76 531.35 C 1274.57 528.88, 1274.48 526.89, 1275.11 523.13 C 1275.73 519.37, 1275.96 516.94, 1276.90 512.56 C 1277.83 508.18, 1278.42 505.71, 1279.79 501.23 C 1281.17 496.75, 1281.98 494.37, 1283.78 490.16 C 1285.57 485.95, 1286.63 483.86, 1288.77 480.18 C 1290.92 476.49, 1292.11 474.69, 1294.49 471.72 C 1296.87 468.75, 1298.18 467.41, 1300.67 465.34 C 1303.15 463.26, 1304.52 462.49, 1306.94 461.36 C 1309.35 460.22, 1310.52 459.86, 1312.74 459.68 C 1314.96 459.49, 1316.01 459.63, 1318.04 460.44 C 1320.06 461.24, 1321.00 461.90, 1322.86 463.71 C 1324.72 465.52, 1325.73 466.67, 1327.35 469.49 C 1328.96 472.31, 1329.76 474.10, 1330.94 477.82 C 1332.12 481.54, 1332.62 483.76, 1333.24 488.09 C 1333.86 492.43, 1333.95 494.93, 1334.04 499.48 C 1334.13 504.03, 1333.94 506.51, 1333.68 510.84 C 1333.43 515.17, 1333.16 517.38, 1332.78 521.12 C 1332.40 524.86, 1331.95 526.64, 1331.79 529.53 C 1331.63 532.43, 1331.79 533.73, 1331.99 535.60 C 1332.19 537.46, 1332.39 537.97, 1332.79 538.87 C 1333.20 539.77, 1333.41 539.83, 1333.99 540.08 C 1334.57 540.32, 1335.03 540.25, 1335.70 540.10 C 1336.38 539.94, 1337.19 539.71, 1337.36 539.30 C 1337.54 538.89, 1337.24 538.41, 1336.57 538.06 C 1335.90 537.70, 1334.74 537.53, 1334.00 537.52 C 1333.25 537.50, 1332.86 537.73, 1332.84 538.00 C 1332.82 538.26, 1333.52 538.57, 1333.90 538.83 C 1334.28 539.10, 1334.49 539.38, 1334.75 539.31 C 1335.02 539.24, 1335.07 539.26, 1335.22 538.50 C 1335.37 537.74, 1335.37 537.26, 1335.48 535.51 C 1335.59 533.75, 1335.64 532.55, 1335.76 529.72 C 1335.87 526.89, 1335.86 525.11, 1336.04 521.36 C 1336.22 517.62, 1336.47 515.37, 1336.65 510.99 C 1336.83 506.60, 1337.03 504.09, 1336.95 499.43 C 1336.87 494.77, 1336.82 492.21, 1336.26 487.69 C 1335.70 483.18, 1335.28 480.86, 1334.17 476.86 C 1333.05 472.86, 1332.36 470.91, 1330.69 467.67 C 1329.02 464.44, 1328.05 462.87, 1325.80 460.69 C 1323.55 458.50, 1322.11 457.71, 1319.43 456.74 C 1316.76 455.77, 1315.26 455.61, 1312.43 455.84 C 1309.59 456.07, 1308.06 456.50, 1305.26 457.88 C 1302.46 459.26, 1301.06 460.36, 1298.42 462.75 C 1295.78 465.14, 1294.49 466.63, 1292.07 469.83 C 1289.64 473.03, 1288.46 474.91, 1286.29 478.76 C 1284.13 482.61, 1283.08 484.75, 1281.22 489.07 C 1279.37 493.39, 1278.55 495.81, 1277.04 500.35 C 1275.53 504.89, 1274.92 507.39, 1273.68 511.77 C 1272.45 516.14, 1271.82 518.54, 1270.88 522.23 C 1269.93 525.93, 1269.27 527.77, 1268.95 530.24 C 1268.62 532.71, 1269.00 533.71, 1269.25 534.58 C 1269.51 535.44, 1269.90 535.39, 1270.20 534.56 C 1270.50 533.74, 1270.70 532.80, 1270.74 530.46 C 1270.79 528.13, 1270.46 526.40, 1270.42 522.89 C 1270.37 519.38, 1270.43 517.09, 1270.50 512.91 C 1270.57 508.72, 1270.69 506.32, 1270.76 501.96 C 1270.83 497.61, 1270.86 495.29, 1270.86 491.14 C 1270.85 486.99, 1270.86 484.89, 1270.74 481.23 C 1270.63 477.58, 1270.66 475.78, 1270.27 472.85 C 1269.89 469.92, 1269.49 468.55, 1268.80 466.58 C 1268.12 464.61, 1267.60 463.99, 1266.85 463.01 C 1266.11 462.03, 1265.72 461.80, 1265.07 461.69 C 1264.42 461.57, 1263.93 461.89, 1263.61 462.42"
     />
  <path stroke-linecap="null" stroke-linejoin="null" stroke-dasharray="null" stroke-width="5" stroke="#000000"
    fill="none"
    d="M 1358.22,469.38 C 1357.94 469.82, 1358.02 469.85, 1358.02 470.71 C 1358.02 471.57, 1357.99 472.00, 1358.23 473.68 C 1358.46 475.36, 1358.70 476.47, 1359.19 479.11 C 1359.69 481.75, 1360.26 483.41, 1360.70 486.88 C 1361.15 490.34, 1361.26 492.46, 1361.41 496.44 C 1361.55 500.41, 1361.50 502.61, 1361.43 506.75 C 1361.36 510.90, 1361.25 513.14, 1361.07 517.17 C 1360.88 521.20, 1360.68 523.41, 1360.51 526.89 C 1360.34 530.37, 1360.00 532.13, 1360.23 534.58 C 1360.47 537.03, 1360.85 538.11, 1361.68 539.16 C 1362.51 540.20, 1363.25 540.43, 1364.39 539.80 C 1365.53 539.16, 1366.42 538.32, 1367.37 535.97 C 1368.32 533.63, 1368.40 531.71, 1369.16 528.06 C 1369.91 524.42, 1370.14 522.03, 1371.15 517.75 C 1372.15 513.46, 1372.75 511.07, 1374.16 506.64 C 1375.57 502.21, 1376.40 499.84, 1378.22 495.57 C 1380.03 491.30, 1381.08 489.12, 1383.25 485.29 C 1385.41 481.46, 1386.62 479.59, 1389.04 476.42 C 1391.46 473.25, 1392.80 471.78, 1395.37 469.43 C 1397.93 467.08, 1399.34 466.10, 1401.87 464.67 C 1404.40 463.25, 1405.67 462.80, 1408.01 462.29 C 1410.36 461.79, 1411.48 461.71, 1413.61 462.15 C 1415.74 462.59, 1416.73 463.08, 1418.68 464.50 C 1420.63 465.92, 1421.63 466.83, 1423.37 469.25 C 1425.11 471.67, 1426.01 473.19, 1427.37 476.59 C 1428.73 479.99, 1429.33 482.06, 1430.17 486.23 C 1431.00 490.40, 1431.23 492.82, 1431.54 497.43 C 1431.86 502.03, 1431.81 504.57, 1431.75 509.26 C 1431.69 513.95, 1431.48 516.44, 1431.24 520.88 C 1431.00 525.33, 1430.77 527.59, 1430.57 531.50 C 1430.38 535.42, 1430.17 537.36, 1430.28 540.45 C 1430.39 543.54, 1430.66 544.96, 1431.13 546.96 C 1431.59 548.95, 1432.04 549.50, 1432.60 550.43 C 1433.17 551.36, 1433.53 551.47, 1433.96 551.63 C 1434.38 551.78, 1434.58 551.59, 1434.73 551.22 C 1434.88 550.85, 1434.71 550.75, 1434.70 549.79 C 1434.68 548.83, 1434.78 548.33, 1434.66 546.43 C 1434.54 544.52, 1434.27 543.23, 1434.08 540.26 C 1433.90 537.30, 1433.73 535.43, 1433.73 531.58 C 1433.73 527.73, 1433.94 525.47, 1434.10 521.01 C 1434.26 516.55, 1434.47 514.05, 1434.54 509.30 C 1434.60 504.54, 1434.68 501.98, 1434.42 497.25 C 1434.16 492.52, 1433.99 490.04, 1433.24 485.66 C 1432.49 481.28, 1431.98 479.09, 1430.66 475.35 C 1429.34 471.62, 1428.54 469.84, 1426.63 466.99 C 1424.72 464.14, 1423.56 462.84, 1421.11 461.11 C 1418.65 459.38, 1417.15 458.85, 1414.36 458.33 C 1411.58 457.80, 1410.05 457.85, 1407.18 458.48 C 1404.31 459.12, 1402.82 459.79, 1400.01 461.51 C 1397.20 463.22, 1395.79 464.43, 1393.11 467.06 C 1390.44 469.69, 1389.12 471.27, 1386.65 474.64 C 1384.19 478.01, 1382.99 479.95, 1380.79 483.92 C 1378.60 487.89, 1377.55 490.12, 1375.67 494.49 C 1373.79 498.85, 1372.96 501.24, 1371.40 505.72 C 1369.84 510.20, 1369.19 512.61, 1367.89 516.87 C 1366.58 521.12, 1365.91 523.45, 1364.88 527.00 C 1363.84 530.55, 1363.13 532.27, 1362.72 534.62 C 1362.31 536.97, 1362.63 537.95, 1362.81 538.74 C 1362.99 539.54, 1363.35 539.45, 1363.64 538.59 C 1363.93 537.74, 1364.14 536.80, 1364.25 534.47 C 1364.36 532.15, 1364.17 530.42, 1364.18 526.99 C 1364.20 523.55, 1364.24 521.32, 1364.33 517.28 C 1364.43 513.25, 1364.54 511.00, 1364.66 506.83 C 1364.78 502.65, 1364.87 500.44, 1364.92 496.39 C 1364.97 492.34, 1364.95 490.20, 1364.89 486.58 C 1364.83 482.96, 1364.98 481.12, 1364.63 478.28 C 1364.28 475.43, 1363.84 474.16, 1363.15 472.36 C 1362.45 470.56, 1361.89 470.05, 1361.15 469.28 C 1360.41 468.51, 1360.02 468.48, 1359.43 468.50 C 1358.84 468.52, 1358.50 468.94, 1358.22 469.38"
     />
  </g>
</svg>
